<svg width="158" height="209" viewBox="0 0 158 209" fill="none" xmlns="http://www.w3.org/2000/svg"><path d="M102.727 37.6747C102.727 53.5221 83.3236 66.3689 59.388 66.3689C35.4524 66.3689 16.0488 53.5221 16.0488 37.6747C16.0488 21.8273 35.4524 8.98047 59.388 8.98047C83.3236 8.98047 102.727 21.8273 102.727 37.6747Z" fill="white"/><path d="M22.5483 44.5692V52.8858C16.0012 46.1175 16.1782 39.9244 16.1782 37.7567V32.1387C16.6029 37.3409 20.6019 42.5933 22.5483 44.5692Z" fill="#D7FFBD"/><path d="M44.4133 56.0154V64.4817C42.5529 64.0433 37.4126 62.4925 31.7351 59.7967C26.0576 57.1009 23.3716 53.9595 22.7383 52.7258V44.6605L28.8851 41.8984C29.2018 42.6166 31.0198 44.6053 35.7585 46.8149C40.4973 49.0246 45.5271 50.3801 47.4497 50.7816L44.4133 56.0154Z" fill="#D7FFBD"/><path d="M74.5461 56.0154V64.4817C76.4066 64.0433 81.5469 62.4925 87.2244 59.7967C92.9019 57.1009 95.5879 53.9595 96.2212 52.7258V44.6605L90.0744 41.8984C89.7577 42.6166 87.9397 44.6053 83.2009 46.8149C78.4622 49.0246 73.4324 50.3801 71.5098 50.7816L74.5461 56.0154Z" fill="#D7FFBD"/><path d="M59.388 66.3689C83.3236 66.3689 102.727 53.5221 102.727 37.6747C102.727 37.6186 102.727 37.5625 102.726 37.5065H102.727V30.4263H101.333C96.4822 18.0883 79.5416 8.98047 59.388 8.98047C39.2344 8.98047 22.2938 18.0883 17.4435 30.4263H16.0555V37.1667C16.0511 37.3357 16.0488 37.505 16.0488 37.6747C16.0488 53.5221 35.4524 66.3689 59.388 66.3689Z" stroke="#90DC48" stroke-width="1.6225"/><path d="M102.727 29.8552C102.727 45.196 83.3236 57.6322 59.388 57.6322C35.4524 57.6322 16.0488 45.196 16.0488 29.8552C16.0488 14.5143 35.4524 2.07812 59.388 2.07812C83.3236 2.07812 102.727 14.5143 102.727 29.8552Z" fill="white"/><path d="M28.4777 41.9604L22.7713 44.5704C21.4736 43.0221 18.7456 40.1909 17.4186 36.6078C16.4115 33.8885 16.0472 30.1344 16.0914 28.5566H22.7713C22.7713 29.2497 22.9305 31.3789 23.5675 34.3517C24.2045 37.3244 27.1064 40.6628 28.4777 41.9604Z" fill="#D7FFBD"/><path d="M47.4497 50.7816L44.4133 56.0154C42.5529 55.5769 37.7763 54.1794 32.1119 51.1072C26.5872 48.1107 23.3716 45.8942 22.7383 44.6605L28.8851 41.8984C29.2018 42.6166 31.0198 44.6053 35.7585 46.8149C40.4973 49.0246 45.5271 50.3801 47.4497 50.7816Z" fill="#D7FFBD"/><path d="M71.5098 50.7816L74.5461 56.0154C76.4066 55.5769 81.1832 54.1794 86.8475 51.1072C92.3723 48.1107 95.5879 45.8942 96.2212 44.6605L90.0744 41.8984C89.7577 42.6166 87.9397 44.6053 83.2009 46.8149C78.4622 49.0246 73.4324 50.3801 71.5098 50.7816Z" fill="#D7FFBD"/><path d="M47.2168 50.8597L51.9579 42.1406C53.5382 42.1406 53.4105 42.7773 55.6447 44.3032C57.879 45.829 61.1674 45.5738 62.3663 44.5929C63.3254 43.8081 65.8902 42.6311 67.0528 42.1406L71.4668 50.8597C69.614 51.2048 64.6332 51.9496 59.5326 52.1676C54.4319 52.3855 49.1968 51.3865 47.2168 50.8597Z" fill="#D7FFBD"/><path d="M88.0946 8.41406L83.0664 12.0675C84.6193 13.0866 88.3016 15.1712 91.2489 18.2655C93.9337 21.084 95.7136 26.0463 96.0533 28.408H102.653C102.119 26.0463 101.763 21.4908 98.5101 17.5644C95.9268 14.4466 90.5048 9.93464 88.0946 8.41406Z" fill="#D7FFBD"/><path d="M36.236 12.0923L30.7422 8.39132C41.7064 2.42341 54.3941 1.35551 59.3674 1.56755V6.77212C48.218 6.54081 39.3009 10.2226 36.236 12.0923Z" fill="#D7FFBD"/><path d="M59.2988 17.3919V6.93488C69.6544 6.28512 79.1469 10.2175 82.5988 12.2649L78.6393 15.1584C78.0809 14.8031 76.7713 14.0416 75.9997 13.8386C75.2281 13.6355 69.5867 13.754 66.8624 13.8386C62.7608 14.0416 60.111 16.2921 59.2988 17.3919Z" fill="#D7FFBD"/><path d="M59.449 1.57577L59.449 28.5988M59.449 28.5988L87.8244 8.56007M59.449 28.5988L96.0474 44.5584V53.2256M59.449 28.5988L74.2077 55.689M16.133 28.5988H102.734M30.9518 8.56007L59.3272 28.5988M59.3272 28.5988L22.7289 44.5584V53.2256M59.3272 28.5988L44.5686 55.689M74.2711 55.689V64.3561M44.5051 55.689V64.3561M102.727 29.5561C102.727 45.0618 83.3235 57.6317 59.388 57.6317C35.4524 57.6317 16.0488 45.0618 16.0488 29.5561C16.0488 14.0503 35.4524 1.48047 59.388 1.48047C83.3235 1.48047 102.727 14.0503 102.727 29.5561ZM96.0473 29.5561C96.0473 42.0593 79.6344 52.1952 59.388 52.1952C39.1416 52.1952 22.7287 42.0593 22.7287 29.5561C22.7287 17.0528 39.1416 6.91698 59.388 6.91698C79.6344 6.91698 96.0473 17.0528 96.0473 29.5561Z" stroke="#90DC48" stroke-width="1.6225"/><path d="M37.997 17.6016C35.4508 17.6016 33.3867 19.2008 33.3867 21.1736V38.1922C33.3867 40.165 35.4494 41.7642 37.9956 41.7642H47.7093C52.4149 41.7642 53.5719 42.7254 54.691 43.655C55.5835 44.3965 56.4519 45.1179 59.0774 45.3155C59.2061 45.3252 59.3314 45.3208 59.4513 45.304C59.531 45.3073 59.6126 45.3049 59.6957 45.2963C61.6776 45.0908 62.5418 44.4753 63.4577 43.8229C64.7625 42.8936 66.1721 41.8896 71.0673 41.8896H80.7811C83.3273 41.8896 85.39 40.2903 85.39 38.3175V21.1736C85.39 19.2008 83.3259 17.6016 80.7797 17.6016H70.4526C65.5867 17.6016 61.381 19.7919 59.3883 22.9694C57.3956 19.7919 53.19 17.6016 48.324 17.6016H37.997Z" fill="#D7FFBD" stroke="#90DC48" stroke-width="1.6225"/><path d="M43.407 13.791C41.37 13.791 39.7188 15.0704 39.7188 16.6487V33.7946C39.7188 35.3729 41.3686 36.6523 43.4056 36.6523H50.1687C54.2295 36.6523 55.496 37.5183 56.6344 38.2969C57.2138 38.6931 57.7601 39.0667 58.6246 39.2919C58.816 39.3998 59.0526 39.4541 59.3074 39.4267C59.3359 39.4308 59.3647 39.4347 59.3938 39.4384C59.7731 39.4874 60.1156 39.367 60.3414 39.1579C60.8877 38.9488 61.323 38.6664 61.7852 38.3665C63.0114 37.5709 64.4272 36.6523 68.6095 36.6523H75.3726C77.4095 36.6523 79.0594 35.3729 79.0594 33.7946V16.6487C79.0594 15.0704 77.4082 13.791 75.3712 13.791H67.9948C64.2919 13.791 61.067 15.3765 59.3891 17.7191C57.7112 15.3765 54.4863 13.791 50.7834 13.791H43.407Z" fill="white" stroke="#90DC48" stroke-width="1.6225"/><path d="M59.3887 17.6016L59.3887 39.45" stroke="#90DC48" stroke-width="1.6225"/><path d="M114.097 135.378C138.02 135.378 157.414 122.4 157.414 106.392C157.414 105.99 157.402 105.59 157.377 105.191H157.414V98.2452H155.68C150.419 86.2029 133.793 77.4062 114.097 77.4062C94.4001 77.4062 77.774 86.2029 72.5136 98.2452H70.786V105.191H70.8158C70.7915 105.59 70.7793 105.99 70.7793 106.392C70.7793 122.4 90.1731 135.378 114.097 135.378Z" fill="#E6A000"/><path d="M157.414 98.2999C157.414 113.512 138.02 125.844 114.097 125.844C90.1731 125.844 70.7793 113.512 70.7793 98.2999C70.7793 83.0878 90.1731 70.7559 114.097 70.7559C138.02 70.7559 157.414 83.0878 157.414 98.2999Z" fill="#FFC800"/><path d="M146.493 87.9627C144.418 84.3627 137.613 80.8581 134.186 79.4367C134.049 79.38 133.899 79.3982 133.781 79.4874C120.936 89.1645 96.3638 107.631 90.5479 111.756C90.3063 111.927 90.3092 112.287 90.559 112.446C96.5066 116.229 104.853 117.511 107.901 117.611C107.993 117.614 108.076 117.588 108.15 117.534C120.584 108.549 142.754 91.3991 146.398 88.4649C146.552 88.3412 146.591 88.1335 146.493 87.9627Z" fill="#FFE700"/><path d="M121.42 76.5578C119.362 76.3555 117.246 76.25 115.087 76.25C94.7176 76.25 78.2051 85.6361 78.2051 97.2143C78.2051 100.625 79.6378 103.845 82.1798 106.691L121.42 76.5578Z" fill="#FFE700"/><path d="M112.821 97.8104L107.337 93.8099C105.661 92.5866 102.942 92.5866 101.265 93.8099C99.5886 95.0332 99.5886 97.0165 101.265 98.2398L109.638 104.348C110.511 104.985 111.666 105.29 112.81 105.264C113.961 105.295 115.125 104.989 116.003 104.349L131.098 93.3357C132.775 92.1124 132.775 90.1291 131.098 88.9058C129.421 87.6825 126.703 87.6825 125.026 88.9058L112.821 97.8104Z" fill="#E6A000" stroke="#E6A000" stroke-width="0.9735"/><mask id="mask0_622_73105" style="mask-type:alpha" maskUnits="userSpaceOnUse" x="44" y="69" width="87" height="80"><path d="M130.558 123.688L99.3064 69.8652L69.914 75.2011L44.5879 92.1368L67.242 148.976L130.558 134.592V123.688Z" fill="#D9D9D9"/></mask><g mask="url(#mask0_622_73105)"><path d="M114.053 134.709C137.471 134.709 156.455 122.025 156.455 106.379C156.455 105.986 156.443 105.595 156.42 105.206H156.455V98.4166H154.758C149.608 86.6465 133.333 78.0488 114.053 78.0488C94.7723 78.0488 78.4973 86.6465 73.3481 98.4166H71.6569V105.206H71.6861C71.6624 105.595 71.6504 105.986 71.6504 106.379C71.6504 122.025 90.6346 134.709 114.053 134.709Z" fill="white"/><path d="M79.6047 114.07V122.916C77.787 120.735 73.4529 116.864 72.758 112.858C72.2411 109.878 71.6068 103.931 71.728 101.225C72.552 107.332 77.3225 112.333 79.6047 114.07Z" fill="#D7FFBD"/><path d="M100.897 124.007V133.316C90.679 131.642 82.5441 125.643 79.7539 122.853V114.193C84.6608 120.024 95.8938 123.165 100.897 124.007Z" fill="#D7FFBD"/><path d="M114.055 134.709C137.473 134.709 156.457 122.025 156.457 106.379C156.457 105.986 156.445 105.595 156.422 105.206H156.457V98.4166H154.76C149.611 86.6465 133.336 78.0488 114.055 78.0488C94.7744 78.0488 78.4995 86.6465 73.3502 98.4166H71.659V105.206C71.6353 105.595 71.6525 105.986 71.6525 106.379C71.6525 122.025 90.6367 134.709 114.055 134.709Z" stroke="#90DC48" stroke-width="1.6225"/><ellipse cx="114.053" cy="98.47" rx="42.4025" ry="26.9212" fill="white"/><path d="M85.5489 111.281L79.7344 114.098C85.767 119.84 96.2696 123.122 100.767 124.046L103.629 118.595C96.7602 118.086 88.7136 113.507 85.5489 111.281Z" fill="#D7FFBD"/><path d="M78.1464 97.7891H71.9684C71.2052 104.512 76.7079 111.462 79.5546 114.097L85.8234 111.417C79.064 106.911 77.889 100.454 78.1464 97.7891Z" fill="#D7FFBD"/><path d="M88.8635 83.0747L83.8984 79.5562C88.9651 75.7718 97.2948 73.5747 100.826 72.9492L103.954 77.7969C98.7309 77.9533 91.7173 81.3806 88.8635 83.0747Z" fill="#D7FFBD"/><path d="M106.014 101.966L85.7238 111.275C79.6143 107.886 78.0498 100.87 78.0312 97.7853L100.663 97.6738L106.014 101.966Z" fill="#D7FFBD"/><path d="M103.654 118.721L111.125 105.287L117.94 101.617L127.181 117.935C118.95 121.028 108.067 119.748 103.654 118.721Z" fill="#D7FFBD"/><path d="M108.352 96.3724L83.7365 79.5698M112.842 98.9186L79.7607 113.898V122.894M114.053 100.137L100.774 123.797V133.137M72.1105 97.8545L116.971 97.8545M156.455 98.47C156.455 113.338 137.471 125.391 114.053 125.391C90.6346 125.391 71.6504 113.338 71.6504 98.47C71.6504 83.6018 90.6346 71.5488 114.053 71.5488C137.471 71.5488 156.455 83.6018 156.455 98.47ZM149.908 98.1811C149.908 109.953 133.842 119.495 114.023 119.495C94.2041 119.495 78.1378 109.953 78.1378 98.1811C78.1378 86.4097 94.2041 76.867 114.023 76.867C133.842 76.867 149.908 86.4097 149.908 98.1811Z" stroke="#90DC48" stroke-width="1.6225"/><path d="M112.39 98.4941L107.4 94.8085C105.874 93.6816 103.401 93.6816 101.875 94.8085C100.349 95.9355 100.349 97.7627 101.875 98.8897L109.493 104.517C110.288 105.104 111.339 105.385 112.38 105.361C113.427 105.389 114.486 105.108 115.286 104.518L129.022 94.3717C130.547 93.2447 130.547 91.4175 129.022 90.2906C127.496 89.1636 125.022 89.1636 123.496 90.2906L112.39 98.4941Z" fill="white" stroke="#90DC48" stroke-width="1.6225"/></g><path d="M130.032 133.354V124.315L99.459 72.369C100.011 72.2429 100.569 72.1238 101.131 72.0117L131.654 123.873V132.898C131.119 133.057 130.578 133.209 130.032 133.354Z" fill="#E6A000"/><path d="M90.8453 178.1C90.8453 194.756 70.6667 208.259 45.7752 208.259C20.8836 208.259 0.705078 194.756 0.705078 178.1C0.705078 161.444 20.8836 147.941 45.7752 147.941C70.6667 147.941 90.8453 161.444 90.8453 178.1Z" fill="#E6A000"/><path d="M0.711968 169.624H90.8451V176.851H0.711968V169.624Z" fill="#E6A000"/><path d="M90.844 169.052C90.844 185.228 70.6671 198.34 45.7775 198.34C20.8879 198.34 0.710938 185.228 0.710938 169.052C0.710938 152.877 20.8879 139.764 45.7775 139.764C70.6671 139.764 90.844 152.877 90.844 169.052Z" fill="#FFC800"/><path d="M43.2069 156.547C44.3756 154.851 47.827 154.851 48.9958 156.547L52.3513 161.417C52.8291 162.111 53.7806 162.585 54.8732 162.674L62.5707 163.303C65.3215 163.527 66.405 165.92 64.3415 167.212L58.8287 170.666C57.9782 171.199 57.5955 172.008 57.8231 172.79L59.2953 177.853C59.8381 179.719 57.0277 181.183 54.6289 180.284L47.6189 177.655C46.6709 177.3 45.5318 177.3 44.5838 177.655L37.5738 180.284C35.175 181.183 32.3646 179.719 32.9073 177.853L34.3796 172.79C34.6072 172.008 34.2244 171.199 33.374 170.666L27.8612 167.212C25.7977 165.92 26.8812 163.527 29.632 163.303L37.3295 162.674C38.4221 162.585 39.3736 162.111 39.8514 161.417L43.2069 156.547Z" fill="white"/><path d="M123.949 31.3867C124.329 31.0065 124.946 31.0065 125.326 31.3867L129.459 35.5194C129.839 35.8996 129.839 36.516 129.459 36.8961L125.326 41.0288C124.946 41.409 124.329 41.409 123.949 41.0288L119.816 36.8961C119.436 36.516 119.436 35.8996 119.816 35.5194L123.949 31.3867Z" fill="#90DC48"/><path d="M11.5975 67.4785C11.9777 67.0983 12.5941 67.0983 12.9743 67.4785L17.107 71.6112C17.4871 71.9914 17.4871 72.6078 17.107 72.9879L12.9743 77.1206C12.5941 77.5008 11.9777 77.5008 11.5975 77.1206L7.46482 72.9879C7.08464 72.6078 7.08464 71.9914 7.46482 71.6112L11.5975 67.4785Z" fill="#90DC48"/><path d="M105.034 151.576C105.578 151.032 106.461 151.032 107.006 151.576L112.924 157.495C113.468 158.039 113.468 158.922 112.924 159.466L107.006 165.385C106.461 165.929 105.578 165.929 105.034 165.385L99.1154 159.466C98.5709 158.922 98.5709 158.039 99.1154 157.495L105.034 151.576Z" fill="#90DC48"/></svg>