<svg width="474" height="454" viewBox="0 0 474 454" fill="none" xmlns="http://www.w3.org/2000/svg"><path d="M460.435 80.2277C452.271 80.0856 458.248 48.0857 461.815 37.3057L446.549 40.7012L446.912 48.1702L439.578 77.1894C440.978 83.0343 445.888 94.0696 454.326 91.4565C464.873 88.1901 466.667 82.2019 466.676 81.674C466.685 81.1461 467.195 78.1275 464.732 78.0845C462.972 78.0541 463.496 80.2808 460.435 80.2277Z" fill="#FFB100"/><path d="M107.559 234.892C110.041 225.783 112.166 225.046 117.02 221.188L120.309 226.454L118.159 236.696L110.574 247.758C108.742 246.506 105.574 242.18 107.559 234.892Z" fill="#FFAADE"/><path d="M459.79 117.319C451.569 117.176 446.244 118.96 444.609 119.871C440.624 125.011 432.296 136.004 430.867 138.852C434.216 138.967 443.57 137.806 447.827 137.211C447.706 137.455 447.268 138.229 446.487 139.37C436.759 144.164 435.186 151.6 435.143 154.063C435.1 156.526 437.042 162.263 445.418 162.408C457.172 162.612 473.018 142.049 473.177 132.899C473.274 127.339 470.066 117.497 459.79 117.319Z" fill="#FFC6B7"/><path d="M467.871 120.221C465.874 118.52 463.227 117.378 459.788 117.319C451.568 117.175 446.242 118.96 444.607 119.871C440.622 125.011 432.295 136.004 430.865 138.852C434.16 138.965 443.264 137.843 447.613 137.24C456.197 120.368 462.468 118.169 467.871 120.221Z" fill="#D22121"/><path d="M441.662 171.474C445.44 172.474 454.446 173.417 460.247 169.191" stroke="#FF4B4B" stroke-width="12.6707" stroke-linecap="round" stroke-linejoin="round"/><path d="M66.4028 215.167C77.7892 206.971 79.8051 190.303 70.9053 177.939C62.0055 165.574 45.5602 162.195 34.1737 170.391C22.7872 178.586 20.7714 195.254 29.6712 207.619C38.571 219.983 55.0163 223.363 66.4028 215.167Z" fill="#3D3D3D"/><path d="M90.534 222.065C100.64 222.241 108.976 214.191 109.151 204.084C109.327 193.978 101.277 185.642 91.1704 185.467C81.064 185.291 72.7286 193.341 72.5529 203.448C72.3772 213.554 80.4276 221.889 90.534 222.065Z" fill="#3D3D3D"/><path d="M88.4217 185.63C79.2877 186.598 76.7951 184.196 67.9185 174.396L65.0605 176.811L67.8062 193.016L79.966 196.185L91.07 191.238C91.5734 190.649 91.7478 188.701 88.4217 185.63Z" fill="#3D3D3D"/><path d="M111.421 251.715C110.527 222.13 105.27 192.469 80.2141 192.034C62.3372 191.723 17.1758 221.943 16.4396 264.285C15.7034 306.627 40.8936 320.939 53.5807 322.802C73.1587 308.968 112.136 275.383 111.421 251.715Z" fill="#DA8E74"/><path d="M74.2507 239.453C67.6337 239.408 66.4495 226.504 64.3535 221.539L81.1711 226.091C81.7348 227.403 82.9291 230.684 83.193 233.307C83.5232 236.587 80.8677 239.498 74.2507 239.453Z" fill="white"/><path d="M89.2439 232.883L86.7938 225.756L86.1895 221.877L95.6835 212.1C96.9561 213.942 99.6713 219.428 100.352 226.636C100.666 232.933 92.7163 233.569 89.2439 232.883Z" fill="white"/><path d="M69.646 257.256C69.7207 252.962 77.237 237.745 85.1899 237.884L90.6263 236.992C91.5137 234.567 94.967 230.295 101.686 232.609C117.985 238.594 110.279 250.732 104.53 251.245C97.2672 251.893 99.0294 247.699 95.5104 247.638C89.9504 247.542 89.7097 265.42 77.1116 265.2C72.255 265.116 69.5714 261.549 69.646 257.256Z" fill="#3D3D3D"/><path d="M65.5449 221.771C73.3377 223.033 84.6227 227.602 86.0761 227.338C87.5296 227.074 91.841 219.694 96.162 214.137" stroke="#3D3D3D" stroke-width="8.16555" stroke-linecap="round" stroke-linejoin="round"/><path d="M78.6836 215.241L82.3017 217.698L82.9144 210.809" stroke="#C26C4F" stroke-width="1.971" stroke-linecap="round" stroke-linejoin="round"/><path d="M79.7027 236.591C81.2867 236.619 82.5925 235.393 82.6193 233.853C82.6461 232.313 81.3837 231.042 79.7997 231.015C78.2157 230.987 76.9099 232.213 76.8832 233.753C76.8564 235.293 78.1187 236.564 79.7027 236.591Z" fill="#3D3D3D"/><path d="M92.1093 232.442C93.7057 232.47 95.0218 231.234 95.0488 229.682C95.0758 228.13 93.8035 226.85 92.207 226.822C90.6106 226.794 89.2945 228.03 89.2675 229.582C89.2406 231.134 90.5129 232.415 92.1093 232.442Z" fill="#3D3D3D"/><path d="M88.5297 239.559C91.1729 239.605 93.3529 237.5 93.3989 234.857C93.4448 232.213 91.3393 230.033 88.6961 229.988C86.0529 229.942 83.8729 232.047 83.8269 234.69C83.781 237.333 85.8865 239.514 88.5297 239.559Z" fill="#DA8E74"/><path d="M51.7276 226.951C52.489 223.655 47.534 208.995 49.6338 205.653L52.1865 200.558C55.9667 196.399 63.3308 188.022 62.5467 187.783C61.7621 187.545 33.9088 207.092 20.0801 216.896L23.6898 227.942C26.8366 226.471 33.6528 224.242 35.7435 227.095C38.3568 230.661 36.1878 233.932 39.486 234.553C48.4061 235.764 50.9663 230.246 51.7276 226.951Z" fill="#3D3D3D"/><path d="M82.8417 298.389L74.447 296.975L40.2521 287.651L23.6297 271.873L17.7591 253.185L17.6746 253.117C16.9354 256.732 16.5061 260.459 16.4396 264.285C15.7034 306.627 40.8936 320.939 53.5807 322.803C61.4727 317.226 72.5164 308.441 82.8417 298.389Z" fill="#2BE69C"/><path d="M86.7184 294.517C81.8409 292.486 75.4645 290.325 69.8042 288.588L31.7696 265.257L21.6811 246.214L20.0208 244.65C18.6564 248.539 17.6368 252.587 17.0391 256.774C17.8432 276.235 26.5312 295.175 71.0158 299.874C74.61 300.253 77.7271 300.532 80.4119 300.72C82.5426 298.706 84.6559 296.632 86.7184 294.517Z" fill="#A56644"/><path d="M111.268 247.625C111.329 248.987 111.379 250.352 111.421 251.716C111.628 258.569 108.507 266.253 103.493 274.049C94.062 280.523 81.6282 288.924 73.6485 294.287C49.4854 292.006 16.1371 276.449 19.774 245.369C21.4511 240.41 23.6908 235.705 26.335 231.295C26.5011 231.542 26.6746 231.805 26.8557 232.083C28.4825 259.99 37.2041 268.59 64.3031 273.003C88.7635 276.988 105.411 255.253 110.322 248.841C110.712 248.332 111.028 247.92 111.268 247.625Z" fill="#FFAADE"/><path d="M40.5718 228.682C49.7117 222.104 51.963 209.604 45.6002 200.764C39.2373 191.924 26.6698 190.091 17.5298 196.67C8.38987 203.249 6.13858 215.748 12.5014 224.588C18.8643 233.428 31.4318 235.261 40.5718 228.682Z" fill="#3D3D3D"/><path d="M29.1536 237.614C33.5071 237.689 37.0978 234.221 37.1735 229.868C37.2492 225.514 33.7813 221.924 29.4277 221.848C25.0742 221.772 21.4836 225.24 21.4079 229.594C21.3322 233.947 24.8 237.538 29.1536 237.614Z" fill="#DA8E74"/><path d="M32.2406 282.725C31.329 284.54 31.004 287.034 32.1506 287.898L28.4543 289.911L24.1641 281.564C25.162 282.884 27.2577 285.04 27.6574 283.104C28.1571 280.684 30.6218 276.607 31.3311 276.303C32.0404 275.998 35.1562 279.009 34.6574 279.352C34.1586 279.696 33.1521 280.91 32.2406 282.725Z" fill="#2BE69C"/><path d="M69.0956 305.05C53.2065 311.871 43.065 290.47 39.9805 278.918L45.5241 275.916L72.6767 277.233L86.2553 281.834C87.1558 286.731 84.9846 298.23 69.0956 305.05Z" fill="#FFAADE"/><path d="M244.218 62.1496C249.696 54.7701 258.741 50.9352 267.854 52.1278L425.048 72.6995C441.472 74.8486 449.518 93.8756 439.618 107.156L217.199 405.499C211.697 412.88 202.622 416.696 193.498 415.466L37.5825 394.452C21.2227 392.247 13.2303 373.296 23.0701 360.042L244.218 62.1496Z" fill="#515151"/><path d="M470.117 106.375C470.323 94.5509 451.026 82.7393 443.775 78.6709L437.914 95.8879L441.841 117.007C451.198 117.404 469.953 115.835 470.117 106.375Z" fill="#FF4B4B"/><path d="M273.458 358.729C368.348 375.727 373.876 308.8 373.889 308.096L355.326 298.621L311.209 276.873C266.996 298.493 197.546 345.131 273.458 358.729Z" fill="#FFB100"/><path d="M334.218 325.857C337.376 327.628 342.556 324.39 345.789 318.626C349.021 312.861 349.081 306.752 345.923 304.982C342.765 303.211 337.585 306.449 334.352 312.213C331.12 317.978 331.06 324.087 334.218 325.857Z" fill="white"/><path d="M343.211 329.934C346.217 331.62 351.275 328.313 354.507 322.548C357.74 316.784 357.923 310.744 354.916 309.058C351.91 307.372 346.852 310.679 343.62 316.444C340.388 322.208 340.204 328.248 343.211 329.934Z" fill="white"/><path d="M249.196 350.972C254.608 354.128 262.526 356.771 273.459 358.729C277.014 359.366 280.444 359.885 283.753 360.294C309.666 356.283 329.296 327.637 342.284 308.683C343.898 306.328 345.409 304.123 346.817 302.134L343.858 292.967L311.21 276.873C305.973 279.434 300.381 282.347 294.719 285.513L253.224 332.047C248.934 339.054 246.766 345.787 249.196 350.972Z" fill="#FF9500"/><path d="M362.549 302.307C357.566 316.485 340.809 347.321 315.994 360.69C370.137 354.063 373.88 308.675 373.89 308.096L362.549 302.307Z" fill="#FF9500"/><path d="M332.804 214.298C345.902 200.994 367.345 200.956 380.49 214.212L401.107 235.001C413.425 247.422 414.182 267.206 402.849 280.531C389.978 295.667 366.869 296.427 353.03 282.17L332.638 261.162C319.949 248.091 320.024 227.279 332.804 214.298Z" fill="#3D3D3D"/><path d="M399.904 283.588C386.685 295.698 365.869 295.396 353.03 282.171L332.638 261.162C322.409 250.624 320.474 235.056 326.805 222.615L399.904 283.588Z" fill="#9F9F9F"/><path d="M364.838 241.548C366.033 239.939 368.985 235.891 371.732 231.902C372.019 231.486 372.602 231.407 372.981 231.743C377.796 236.011 387.572 245.17 393.997 252.871C394.363 253.309 394.608 253.837 394.699 254.401C398.399 277.27 382.631 299.705 371.668 314.394C350.567 322.926 327.501 300.906 318.605 288.83L323.911 275.264C331.236 264.267 347.485 242.683 353.877 244.315C360.27 245.947 363.848 243.15 364.838 241.548Z" fill="#FFCBA3"/><path d="M392.227 211.821C400.519 211.965 407.358 205.36 407.502 197.068C407.646 188.776 401.041 181.936 392.749 181.792C384.457 181.648 377.617 188.253 377.473 196.546C377.329 204.838 383.934 211.677 392.227 211.821Z" fill="#3D3D3D"/><path d="M386.636 275.509L377.173 267.037L373.517 270.811C373.013 272.139 372.282 275.443 373.392 278.025C379.736 280.782 384.865 277.496 386.636 275.509Z" fill="white"/><path d="M373.253 263.695L360.866 253.342C357.637 256.046 357.16 259.332 357.325 260.637C357.505 262.424 358.453 266.634 360.803 269.181C366.265 270.853 371.379 266.221 373.253 263.695Z" fill="white"/><path d="M364.745 271.151C365.375 262.432 358.391 259.307 354.821 258.834L354.002 269.486C357.32 273.674 364.114 279.87 364.745 271.151Z" fill="#FFCBA3"/><path d="M366.661 258.185C365.767 259.168 364.47 259.776 363.037 259.751C360.828 259.713 358.995 258.185 358.479 256.141C359.021 255.207 359.792 254.242 360.866 253.342L366.661 258.185Z" fill="#3D3D3D"/><path d="M373.924 270.39L377.173 267.037L380.834 270.315C379.941 271.266 378.666 271.85 377.26 271.826C375.951 271.803 374.773 271.257 373.924 270.39Z" fill="#3D3D3D"/><path d="M372.912 246.899C374.684 246.202 378.156 245.873 380.352 248.225C382.356 250.373 383.36 253.346 378.227 261.072C380.887 263.596 385.566 268.241 387.572 270.246" stroke="#3D3D3D" stroke-width="3.37884" stroke-linecap="round" stroke-linejoin="round"/><path d="M357.827 266.781C357.366 270.253 358.699 278.434 367.723 283.386" stroke="#E89665" stroke-width="1.971" stroke-linecap="round" stroke-linejoin="round"/><path d="M353.285 286.547C353.335 289.059 355.165 294.211 362.084 294.726" stroke="#FABB90" stroke-width="1.40785" stroke-linecap="round" stroke-linejoin="round"/><path d="M322.462 291.141C324.87 287.861 329.481 287.154 332.762 289.562C336.106 292.017 336.765 296.749 334.217 300.024L305.739 336.647C301.681 341.865 296.078 345.67 289.731 347.517C286.161 348.556 283.307 344.475 285.507 341.478L322.462 291.141Z" fill="#FFB100"/><path d="M306.763 335.329L306.217 336.031C301.848 341.649 295.818 345.744 288.985 347.733L288.282 347.937C285.182 348.839 282.704 345.296 284.615 342.693L292.724 331.646C297.235 333.273 302.345 334.776 306.763 335.329Z" fill="#FFCBA3"/><path d="M368.065 274.554C368.108 272.133 371.31 268.814 372.906 267.457C373.894 268.648 375.859 271.697 375.813 274.372C375.755 277.715 372.922 278.652 371.761 278.631C370.6 278.611 368.013 277.581 368.065 274.554Z" fill="#E89665"/><path d="M330.42 338.652C331.632 339.687 333.801 339.136 335.266 337.421C336.73 335.707 336.934 333.478 335.722 332.442C334.51 331.407 332.34 331.958 330.876 333.673C329.412 335.388 329.208 337.617 330.42 338.652Z" fill="white"/><path d="M439.438 82.1143L449.43 99.2226L436.186 106.253L426.795 88.5599L439.438 82.1143Z" fill="#515151"/><path d="M33.4759 375.504L44.0534 392.257L31.0065 399.764L21.1719 382.82L33.4759 375.504Z" fill="#515151"/><path d="M253.413 77.8575C258.88 70.4934 267.9 66.6579 276.997 67.8289L433.061 87.9213C449.479 90.0346 457.568 109.026 447.715 122.329L226.368 421.165C220.871 428.587 211.772 432.43 202.619 431.196L46.7563 410.189C30.3965 407.984 22.4042 389.033 32.244 375.779L253.413 77.8575Z" fill="#515151"/><path d="M247.875 65.9599C252.209 60.0672 259.448 57.0585 266.682 58.1448L419.986 81.1699C430.484 82.7464 435.526 94.9336 429.211 103.467L211.559 397.569C207.275 403.358 200.176 406.349 193.042 405.372L39.5595 384.362C28.98 382.913 23.8009 370.676 30.1269 362.073L247.875 65.9599Z" fill="white"/><path d="M275.502 79.7677C276.716 77.9028 279.489 76.6303 281.694 76.9253L417.437 95.0703C419.643 95.3653 420.447 97.1155 419.232 98.9804C418.017 100.845 415.245 102.118 413.04 101.823L277.297 83.6779C275.091 83.3829 274.288 81.6326 275.502 79.7677Z" fill="#E5E5E5"/><path d="M115.158 235.165L118.036 231.59C127.018 233.26 130.641 229.415 131.582 227.918C132.523 226.421 133.504 218.588 125.516 218.449C117.527 218.31 114.639 222.484 113.541 226.935C112.748 230.147 114.086 233.41 115.158 235.165Z" fill="#DA8E74"/><path d="M275.361 79.7648C276.575 77.8999 279.348 76.6274 281.554 76.9224L372.553 89.0863C374.759 89.3813 375.562 91.1322 374.348 92.9965C373.134 94.8614 370.361 96.1339 368.156 95.8389L277.156 83.6749C274.95 83.38 274.147 81.6297 275.361 79.7648Z" fill="#58CC00"/><path d="M281.223 79.1979C281.5 78.7721 282.133 78.4813 282.637 78.5488L370.199 90.2535C370.703 90.321 370.886 90.7205 370.609 91.1463C370.332 91.572 369.699 91.8629 369.195 91.7954L281.633 80.0906C281.129 80.0238 280.946 79.6237 281.223 79.1979Z" fill="#7AD535"/><path d="M256.643 72.4043L260.109 80.7262" stroke="#B0B0B0" stroke-width="1.971" stroke-linecap="round" stroke-linejoin="round"/><path d="M266.244 73.2617L250.037 80.0901" stroke="#B0B0B0" stroke-width="1.12628" stroke-linecap="round" stroke-linejoin="round"/><path d="M161.502 197.182L330.061 220.67" stroke="#E0E0E0" stroke-width="1.40785"/><path d="M145.643 218.59L314.202 242.079" stroke="#E0E0E0" stroke-width="1.40785"/><path d="M129.789 239.436L298.348 262.924" stroke="#E0E0E0" stroke-width="1.40785"/><path d="M50.66 349.14C52.3002 347.053 55.8468 345.632 58.5116 345.994L217.614 367.631C220.189 367.981 220.979 369.869 219.394 371.886L211.738 381.63C210.098 383.717 206.551 385.138 203.886 384.775L44.7839 363.139C42.2093 362.789 41.4194 360.9 43.004 358.883L50.66 349.14Z" fill="#E5E5E5"/><path d="M116.298 364.338C115.988 365.149 116.449 365.647 117.5 365.797C118.401 365.926 119.329 365.696 119.974 365.318C120.124 365.232 120.248 365.142 120.338 365.031C120.559 364.762 120.447 364.538 120.12 364.491C119.899 364.46 119.666 364.503 119.33 364.672C118.917 364.875 118.615 364.955 118.235 364.9C117.749 364.831 117.631 364.59 117.759 364.254C117.829 364.072 117.939 363.902 118.487 363.233C119.037 362.564 119.199 362.402 119.411 362.239C119.803 361.941 120.25 361.781 120.736 361.851C121.116 361.905 121.238 362.045 121.266 362.312C121.284 362.53 121.404 362.625 121.625 362.656C121.952 362.703 122.369 362.554 122.59 362.285C122.681 362.175 122.716 362.072 122.725 361.965C122.769 361.501 122.373 361.083 121.472 360.954C120.421 360.803 119.326 361.079 118.38 361.799C118.002 362.092 117.76 362.327 117.171 363.044C116.583 363.762 116.429 364.01 116.298 364.338ZM120.894 365.643C120.623 365.974 120.718 366.219 121.098 366.273C121.469 366.326 121.922 366.16 122.193 365.828L123.325 364.448C123.348 364.421 123.377 364.41 123.412 364.415L125.373 364.695C125.408 364.7 125.414 364.716 125.392 364.744L124.26 366.124C123.988 366.455 124.093 366.701 124.464 366.755C124.843 366.808 125.287 366.641 125.559 366.31L128.592 362.612C128.863 362.28 128.759 362.034 128.379 361.98C128.008 361.927 127.565 362.095 127.293 362.426L126.201 363.757C126.179 363.785 126.149 363.796 126.114 363.791L124.153 363.511C124.118 363.506 124.111 363.489 124.134 363.462L125.226 362.13C125.498 361.799 125.394 361.553 125.023 361.5C124.643 361.446 124.199 361.614 123.928 361.945L120.894 365.643ZM126.669 366.522C126.449 366.792 126.513 367.001 126.867 367.051L129.782 367.468C130.144 367.52 130.535 367.368 130.744 367.113C130.948 366.864 130.862 366.644 130.5 366.592L128.371 366.288C128.336 366.283 128.33 366.267 128.352 366.239L129.15 365.266C129.173 365.238 129.202 365.227 129.237 365.232L130.942 365.476C131.304 365.527 131.681 365.381 131.89 365.126C132.099 364.871 132.017 364.659 131.655 364.607L129.95 364.363C129.915 364.358 129.908 364.341 129.931 364.314L130.695 363.382C130.718 363.355 130.747 363.344 130.782 363.348L132.911 363.653C133.273 363.705 133.664 363.553 133.868 363.304C134.077 363.049 133.992 362.828 133.629 362.777L130.715 362.36C130.361 362.309 130.002 362.459 129.781 362.727L126.669 366.522ZM132.187 366.61C131.877 367.421 132.338 367.918 133.389 368.069C134.29 368.198 135.218 367.968 135.864 367.59C136.014 367.504 136.137 367.413 136.227 367.303C136.448 367.034 136.336 366.81 136.009 366.763C135.789 366.731 135.555 366.775 135.22 366.943C134.807 367.146 134.504 367.226 134.124 367.172C133.639 367.103 133.52 366.862 133.648 366.526C133.719 366.343 133.828 366.174 134.377 365.505C134.926 364.835 135.088 364.673 135.3 364.511C135.693 364.212 136.14 364.053 136.626 364.122C137.006 364.177 137.127 364.318 137.155 364.584C137.173 364.802 137.293 364.896 137.514 364.928C137.841 364.974 138.259 364.826 138.48 364.557C138.57 364.447 138.605 364.344 138.614 364.237C138.658 363.774 138.262 363.354 137.361 363.225C136.31 363.075 135.216 363.35 134.27 364.071C133.891 364.364 133.649 364.599 133.061 365.317C132.472 366.034 132.319 366.282 132.187 366.61ZM136.784 367.915C136.518 368.239 136.616 368.492 136.997 368.546C137.367 368.599 137.816 368.424 138.082 368.1L138.699 367.348L140.133 366.682L139.942 368.636C139.926 368.849 140.061 368.984 140.317 369.021C140.68 369.073 141.117 368.889 141.332 368.627C141.411 368.53 141.461 368.421 141.472 368.299L141.633 366.033L143.873 365.059C144.044 364.983 144.187 364.88 144.29 364.756C144.505 364.494 144.392 364.269 144.074 364.224C143.88 364.196 143.627 364.253 143.363 364.369L139.825 365.975L141.116 364.402C141.381 364.078 141.283 363.825 140.912 363.772C140.532 363.717 140.083 363.892 139.817 364.217L136.784 367.915Z" fill="#AFAFAF"/><path d="M332.163 67.6748L343.476 75.3673L351.207 85.449L340.253 96.584L336.472 91.3435L326.972 91.0723L313.691 85.5606L332.163 67.6748Z" fill="#FFC6B7"/><path d="M431.024 71.1269C438.484 71.2565 445.173 77.2871 445.046 84.607C445.184 86.7561 443.627 89.2635 443.627 89.2635C442.047 87.0189 441.188 83.8002 438.551 83.5787C435.009 83.2807 433.844 85.0453 428.108 84.9455C421.457 84.8303 419.518 80.9243 419.596 76.4553C419.635 74.1676 423.563 70.9973 431.024 71.1269Z" fill="#FFC6B7"/><path d="M381.453 39.1463C382.859 32.8063 388.652 23.2899 391.372 19.3242L399.854 21.443L448.021 36.9948L452.859 54.3277L442.935 78.4441L442.448 82.1673L425.904 74.3118L376.051 66.3691C377.385 65.2423 380.337 62.0218 381.475 58.1555C382.897 53.3224 379.696 47.0713 381.453 39.1463Z" fill="#FFC6B7"/><path d="M324.826 74.7713C352.257 45.8903 374.516 37.1953 385.141 33.4375C383.553 37.0708 380.62 45.6372 381.6 50.8359C382.58 56.0346 381.362 60.5006 380.63 62.0836L378.625 64.0202C376.262 66.3025 356.79 80.8186 348.634 88.2806C348.137 76.3734 332.51 68.1465 324.826 74.7713Z" fill="#FF4B4B"/><path d="M334.118 93.7736C335.121 92.1588 334.625 90.0369 333.01 89.0342C331.395 88.0316 329.273 88.5278 328.27 90.1426L321.679 100.758C320.677 102.372 321.173 104.494 322.788 105.497C324.402 106.5 326.524 106.003 327.527 104.389L334.118 93.7736Z" fill="#FFC6B7"/><path d="M322.313 87.5665C323.805 86.3888 324.06 84.2246 322.882 82.7327C321.705 81.2407 319.541 80.986 318.049 82.1636L309.883 88.6092C308.391 89.7869 308.136 91.9511 309.314 93.443C310.492 94.935 312.656 95.1897 314.148 94.0121L322.313 87.5665Z" fill="#FFC6B7"/><path d="M344.865 91.3582C344.667 89.3905 342.911 87.956 340.944 88.154C338.976 88.3521 337.541 90.1078 337.74 92.0755L338.317 97.8127C338.515 99.7804 340.271 101.215 342.239 101.017C344.206 100.819 345.641 99.0631 345.443 97.0954L344.865 91.3582Z" fill="#FFC6B7"/><path d="M327.193 90.498C328.495 89.0159 328.349 86.7588 326.867 85.4565C325.385 84.1543 323.128 84.3001 321.826 85.7822L312.053 96.9044C310.751 98.3865 310.897 100.644 312.379 101.946C313.861 103.248 316.118 103.102 317.42 101.62L327.193 90.498Z" fill="#FFC6B7"/><path d="M318.212 92.8201C318.974 91.5309 317.647 90.874 316.613 91.6658L315.09 88.154L321.473 83.4072L324.691 84.5896L322.419 91.7667C320.763 92.5472 317.603 93.8514 318.212 92.8201Z" fill="#FFC6B7"/><path d="M323.638 97.6316C324.307 96.5806 322.711 95.5165 321.888 96.5274L320.143 93.0568L326.312 88.0342L329.579 89.0744L327.624 96.3441C326.004 97.1975 322.994 98.642 323.638 97.6316Z" fill="#FFC6B7"/><path d="M398.362 52.6061C403.24 52.6909 407.27 48.4584 407.362 43.1526C407.454 37.8467 403.575 33.4767 398.696 33.3919C393.818 33.307 389.788 37.5395 389.696 42.8454C389.604 48.1513 393.484 52.5213 398.362 52.6061Z" fill="white"/><path d="M413.909 59.282C419.04 59.3712 423.275 55.1423 423.367 49.8364C423.459 44.5306 419.375 40.157 414.244 40.0678C409.113 39.9786 404.878 44.2075 404.786 49.5134C404.694 54.8192 408.779 59.1928 413.909 59.282Z" fill="white"/><path d="M338.141 96.5464C337.868 94.0073 334.975 92.3729 332.947 95.6112L330.309 89.4755L335.909 87.2852L341.121 93.219C340.218 95.1747 338.359 98.5779 338.141 96.5464Z" fill="#FFC6B7"/><path d="M384.765 31.6078C387.322 32.5074 390.274 30.7394 391.357 27.6588C392.441 24.5783 391.247 21.3517 388.69 20.4521C386.133 19.5525 383.182 21.3205 382.098 24.4011C381.014 27.4816 382.208 30.7082 384.765 31.6078Z" fill="#FFC6B7"/><path d="M408.678 52.5046C409.728 52.5228 410.593 51.6868 410.611 50.6373C410.63 49.5878 409.794 48.7222 408.744 48.7039C407.695 48.6857 406.829 49.5217 406.811 50.5712C406.792 51.6207 407.628 52.4863 408.678 52.5046Z" fill="#3D3D3D"/><path d="M401.225 49.1354C402.274 49.1537 403.14 48.3177 403.158 47.2682C403.176 46.2186 402.34 45.353 401.291 45.3348C400.241 45.3166 399.376 46.1526 399.358 47.2021C399.339 48.2516 400.175 49.1172 401.225 49.1354Z" fill="#3D3D3D"/><path d="M441.844 52.1657C442.144 49.038 443.832 43.1183 443.87 42.943L456.623 40.3838L457.784 50.542C456.35 51.315 452.347 51.4332 450.92 52.4996C448.805 58.7287 446.591 58.5142 444.691 58.4811C442.157 58.4371 441.554 55.1788 441.844 52.1657Z" fill="#FFB100"/><path d="M445.198 13.0787C445.242 10.5449 443.597 1.89226 434.072 1.05746C424.547 0.222664 422.902 5.75627 421.353 5.72934C419.418 5.69569 418.313 1.39949 416.971 1.64017C414.567 2.27422 414.667 4.6157 415.018 5.70718C414.053 5.53786 411.648 5.13817 409.751 4.89398C404.893 4.13363 398.766 8.38741 396.311 10.6093L394.053 14.9351L408.14 30.7744L437.379 41.6672L460.272 36.9259C461.406 37.1685 463.68 36.4712 463.706 31.7405C463.738 25.8272 456.848 21.2368 451.093 18.215C445.337 15.1932 445.154 15.6124 445.198 13.0787Z" fill="#FFB100"/><path d="M395.211 21.2205L390.121 30.566C389.291 31.8583 386.977 33.817 383.529 33.2017C385.889 27.8668 389.421 22.1675 391.372 19.3232L395.227 20.2864L395.211 21.2205Z" fill="#FFB100"/><path d="M390.983 17.3468C391.08 11.7865 396.395 9.27422 398.042 9.17969C397.068 10.0516 395.949 11.0973 395.908 13.5251C395.777 20.9856 422.731 37.823 440.537 38.1326C458.344 38.4422 463.672 33.6594 463.697 32.2694C463.714 31.284 463.596 30.9652 463.41 30.522C463.936 30.6895 464.709 30.7311 464.66 33.5182C464.529 41.0843 458.83 44.9278 436.836 44.5454C418.325 44.2236 390.856 24.6317 390.983 17.3468Z" fill="#FF4B4B"/><path d="M402.306 50.4926L391.358 36.292L385.369 40.6233L389.906 54.994L402.998 55.2217L402.306 50.4926Z" fill="#FFC6B7"/><path d="M403.834 55.7281C409.045 51.5941 419.978 51.8316 424.933 52.9269L426.168 54.7788L417.12 60.9578C410.614 61.2438 398.375 60.0591 403.834 55.7281Z" fill="#FFC6B7"/><path d="M456.011 61.2823C459.296 61.3394 462.006 58.6915 462.063 55.368C462.121 52.0446 459.505 49.3041 456.221 49.247C452.936 49.1899 450.227 51.8377 450.169 55.1612C450.111 58.4847 452.727 61.2251 456.011 61.2823Z" fill="#FFC6B7"/><path d="M410.398 62.8158C412.206 60.8644 417.344 58.0651 423.429 62.479" stroke="white" stroke-width="9.01028" stroke-linecap="round" stroke-linejoin="round"/><path d="M399.357 52.1317C399.744 50.2618 402.76 48.5651 405.102 47.585C405.055 50.2946 404.376 55.9151 402.016 55.8741C399.656 55.833 398.97 54.0016 399.357 52.1317Z" fill="#EE9583"/><path opacity="0.6" d="M389.137 45.9268C390.019 47.1195 391.494 50.7864 390.333 55.9123" stroke="#EE9583" stroke-width="1.971" stroke-linecap="round" stroke-linejoin="round"/><path d="M407.596 57.1309L413.583 67.4187" stroke="#FFC6B7" stroke-opacity="0.39" stroke-width="1.40785"/><path d="M416.883 54.8105L416.941 66.7134" stroke="#FFC6B7" stroke-opacity="0.39" stroke-width="1.40785"/><path d="M426.186 57.1572L420.367 67.5411" stroke="#FFC6B7" stroke-opacity="0.39" stroke-width="1.40785"/><path d="M231.575 182.47C258.002 185.374 252.637 186.862 257.79 174.541C262.943 162.219 268.157 149.709 266.267 134.655C264.702 122.189 254.492 111.994 243.953 110.122C216.759 103.72 176.747 152.393 180.826 157.796C188.278 167.668 199.005 178.891 231.575 182.47Z" fill="#A570FF"/><path d="M262.947 146.054C252.603 166.46 255.652 177.952 237.187 174.417C167.175 161.014 197.779 144.376 210.764 129.249L237.541 110.915L258.727 120.257L266.42 140.172L265.294 147.711L262.947 146.054Z" fill="#FFC6B7"/><path d="M248.915 131.759C248.945 130.967 242.55 128.609 237.797 128.923C231.849 129.316 227.868 138.599 228.976 139.152C230.864 140.095 236.755 143.031 242.034 142.157C247.323 141.28 248.885 132.551 248.915 131.759Z" fill="white"/><path d="M218.551 124.039C219.233 123.636 228.72 124.509 229.903 127.131C231.825 131.392 225.989 137.253 224.503 138.056C222.647 139.059 214.634 137.548 212.245 134.196C209.812 130.781 217.869 124.441 218.551 124.039Z" fill="white"/><path d="M241.408 139.946C243.052 139.93 244.372 138.584 244.356 136.94C244.34 135.296 242.994 133.976 241.35 133.992C239.706 134.008 238.386 135.354 238.402 136.998C238.418 138.642 239.764 139.962 241.408 139.946Z" fill="#3D3D3D"/><path d="M225.017 134.872C226.656 134.994 228.085 133.764 228.207 132.124C228.329 130.484 227.099 129.056 225.459 128.934C223.819 128.812 222.391 130.042 222.269 131.682C222.147 133.321 223.377 134.749 225.017 134.872Z" fill="#3D3D3D"/><path d="M213.779 128.627C215.918 125.868 219.101 123.33 219.496 123.097C220.178 122.695 228.721 124.509 229.904 127.131C230.863 129.258 229.889 131.784 228.488 133.88C224.979 131.176 218.366 129.456 213.779 128.627Z" fill="#A570FF"/><path d="M222.1 138.761C222.768 136.972 225.876 135.9 228.635 136.054C228.175 138.725 226.483 143.267 224.156 142.865C221.83 142.465 221.432 140.55 222.1 138.761Z" fill="#EE9583"/><path d="M233.693 116.76C233.693 116.76 231.076 124.925 245.903 129.105C257.236 132.299 260.01 138.233 261.07 142.361C261.51 144.074 263.177 145.102 264.87 144.587L266.704 144.03C269.307 125.053 262.436 113.403 243.955 110.121C222.611 106.329 188.927 139.799 185.928 153.779C188.501 153.523 192.489 153.959 198.944 155.97C200.254 156.379 201.694 155.92 202.491 154.803C203.381 153.558 204.392 152.155 205.586 150.499C208.265 146.782 211.863 141.79 217.07 134.439C225.843 122.053 233.693 116.76 233.693 116.76Z" fill="#A570FF"/><path d="M261.83 153.014C265.013 153.574 268.009 151.67 268.521 148.762C269.032 145.853 266.866 143.041 263.683 142.481C260.499 141.921 257.503 143.825 256.992 146.733C256.48 149.642 258.646 152.454 261.83 153.014Z" fill="#FFC6B7"/><path d="M233.176 146.717C232.708 144.952 228.014 144.301 224.494 147.871" stroke="#EE9583" stroke-width="1.88545" stroke-linecap="round" stroke-linejoin="round"/><path d="M209.461 163.662C211.819 159.848 216.83 158.679 220.632 161.055C224.307 163.351 225.521 168.135 223.385 171.906L206.161 202.313L187.139 199.768L209.461 163.662Z" fill="#593F86"/><path d="M230.549 134.274C232.139 131.739 234.701 129.127 237.795 128.923C242.549 128.609 248.944 130.967 248.914 131.759C248.893 132.313 248.122 136.754 245.848 139.67C241.711 136.866 234.63 135.031 230.549 134.274Z" fill="#A570FF"/><path d="M215.605 203.822L218.431 178.948L205.436 173.23L178.24 198.666L215.605 203.822Z" fill="#593F86"/><g filter="url(#filter0_d_603_69480)"><path d="M121.993 268.246C124.079 265.553 127.439 264.171 130.816 264.618L151.515 267.356C154.099 267.697 155.34 270.714 153.743 272.774L147.868 280.358C145.782 283.051 142.422 284.433 139.044 283.986L118.346 281.248C115.761 280.906 114.521 277.89 116.118 275.829L121.993 268.246Z" fill="white"/><path d="M130.76 265.036L151.459 267.774C153.72 268.073 154.805 270.712 153.408 272.516L147.533 280.099C145.539 282.673 142.327 283.994 139.099 283.567L118.4 280.829C116.139 280.53 115.054 277.89 116.451 276.087L122.326 268.504C124.32 265.93 127.532 264.609 130.76 265.036Z" stroke="#E5E5E5" stroke-width="0.844711"/></g><g filter="url(#filter1_d_603_69480)"><path d="M119.919 289.354C122.975 286.864 127.244 286.503 130.676 288.443L158.198 304.004C160.269 305.175 160.514 308.062 158.669 309.565L152.756 314.382C149.699 316.871 145.429 317.232 141.998 315.292L114.476 299.732C112.405 298.561 112.16 295.673 114.005 294.17L119.919 289.354Z" fill="white"/><path d="M130.468 288.81L157.99 304.371C159.802 305.396 160.016 307.922 158.402 309.237L152.488 314.054C149.567 316.433 145.486 316.778 142.205 314.924L114.683 299.363C112.871 298.338 112.657 295.812 114.271 294.498L120.185 289.681C123.106 287.301 127.188 286.956 130.468 288.81Z" stroke="#E5E5E5" stroke-width="0.844711"/></g><path d="M127.46 276.11C128.213 276.213 128.992 276.053 129.553 275.795C129.827 275.675 129.97 275.566 130.071 275.432C130.259 275.182 130.168 274.963 129.858 274.921C129.67 274.895 129.454 274.954 129.187 275.066C128.853 275.217 128.531 275.271 128.143 275.219C127.667 275.154 127.443 274.917 127.571 274.521C127.644 274.295 127.81 274.042 128.059 273.712C128.307 273.381 128.518 273.135 128.768 272.932C129.205 272.579 129.712 272.441 130.188 272.505C130.576 272.559 130.763 272.682 130.828 272.888C130.893 273.044 130.988 273.146 131.176 273.171C131.486 273.214 131.859 273.058 132.048 272.808C132.149 272.674 132.181 272.55 132.122 272.385C132.019 272.036 131.603 271.714 130.85 271.612C129.775 271.465 128.651 271.775 127.762 272.501C127.45 272.753 127.139 273.085 126.796 273.54C126.453 273.995 126.253 274.342 126.162 274.625C125.893 275.434 126.386 275.964 127.46 276.11ZM135.634 276.327L135.642 276.072C135.652 275.945 135.687 275.851 135.854 275.629L136.877 274.272C137.677 273.21 137.415 272.505 135.897 272.298C135.166 272.199 134.512 272.258 134.048 272.371C133.759 272.43 133.549 272.579 133.442 272.722C133.253 272.972 133.343 273.161 133.642 273.202C133.742 273.215 133.866 273.212 134.003 273.192C134.303 273.134 134.736 273.095 135.112 273.146C135.954 273.26 136.086 273.603 135.71 274.103L135.629 274.21C135.602 274.246 135.567 274.261 135.522 274.255L134.426 274.105C133.108 273.926 131.963 274.263 131.264 275.191C130.645 276.012 130.958 276.586 132.22 276.758C132.94 276.856 133.617 276.751 134.149 276.499L134.16 276.5L134.176 276.738C134.19 276.898 134.32 276.984 134.542 277.015C134.896 277.062 135.31 276.902 135.512 276.635C135.586 276.536 135.626 276.434 135.634 276.327ZM133.01 275.97C132.4 275.887 132.214 275.664 132.483 275.307C132.778 274.915 133.252 274.772 134.071 274.884L134.957 275.005C135.002 275.011 135.01 275.031 134.983 275.067L134.694 275.451C134.351 275.906 133.729 276.067 133.01 275.97ZM140.515 273.566C140.764 273.236 140.657 273.005 140.291 272.955C139.926 272.906 139.523 273.067 139.274 273.397L136.759 276.736C136.511 277.066 136.628 277.298 136.982 277.347C137.348 277.396 137.751 277.234 137.999 276.904L139.438 274.994C139.929 274.342 140.547 273.944 141.233 274.038C141.399 274.06 141.55 274.12 141.678 274.177C141.758 274.217 141.844 274.249 141.932 274.26C142.298 274.311 142.703 274.129 142.925 273.835C143.052 273.665 143.061 273.509 142.902 273.379C142.783 273.294 142.613 273.212 142.314 273.171C141.683 273.085 140.993 273.287 140.512 273.585L140.501 273.584L140.515 273.566Z" fill="#4B4B4B"/><g filter="url(#filter2_d_603_69480)"><path d="M156.277 273.05C158.357 270.366 161.704 268.984 165.072 269.419L194.196 273.182C196.786 273.517 198.034 276.538 196.434 278.602L190.56 286.185C188.48 288.87 185.134 290.252 181.765 289.816L152.641 286.053C150.051 285.719 148.804 282.697 150.403 280.633L156.277 273.05Z" fill="white"/><path d="M165.019 269.837L194.143 273.601C196.409 273.893 197.501 276.537 196.101 278.343L190.227 285.926C188.239 288.492 185.04 289.813 181.82 289.396L152.696 285.634C150.43 285.341 149.338 282.697 150.738 280.891L156.612 273.309C158.601 270.742 161.8 269.421 165.019 269.837Z" stroke="#E5E5E5" stroke-width="0.844711"/></g><path d="M159.445 281.931C161.061 282.151 162.447 281.592 163.483 280.217L166.099 276.745C166.348 276.415 166.241 276.184 165.875 276.134C165.532 276.088 165.198 276.239 164.981 276.445L164.907 276.544L164.897 276.542C164.882 276.206 164.62 275.904 163.867 275.802C162.981 275.682 162.066 275.99 161.277 276.631C160.927 276.918 160.616 277.249 160.287 277.686C159.957 278.124 159.77 278.452 159.663 278.773C159.423 279.497 159.753 279.966 160.639 280.086C161.348 280.183 161.919 280.073 162.433 279.779L162.444 279.781L162.149 280.173C161.603 280.897 160.948 281.152 160.183 281.048C159.851 281.002 159.59 280.879 159.432 280.7C159.334 280.588 159.219 280.513 159.042 280.489C158.732 280.447 158.355 280.622 158.18 280.854C158.1 280.961 158.061 281.094 158.098 281.207C158.202 281.506 158.736 281.835 159.445 281.931ZM163.681 278.138C163.466 278.424 163.254 278.641 163.042 278.809C162.598 279.172 162.169 279.32 161.67 279.253C161.172 279.185 161.025 278.958 161.16 278.553C161.216 278.364 161.341 278.135 161.556 277.849C161.764 277.573 161.977 277.355 162.189 277.188C162.633 276.825 163.062 276.677 163.56 276.745C164.058 276.812 164.205 277.038 164.071 277.444C164.014 277.633 163.89 277.862 163.681 278.138ZM166.858 281.168C167.932 281.315 169.081 280.989 169.944 280.28C170.295 279.993 170.565 279.714 170.922 279.241C171.278 278.768 171.438 278.475 171.545 278.155C171.811 277.365 171.321 276.816 170.247 276.67C169.161 276.522 168.013 276.848 167.149 277.557C166.799 277.844 166.528 278.122 166.172 278.595C165.815 279.068 165.655 279.361 165.548 279.681C165.282 280.472 165.773 281.021 166.858 281.168ZM167.53 280.276C167.032 280.208 166.832 279.954 166.946 279.576C167.025 279.341 167.158 279.133 167.434 278.767C167.71 278.401 167.879 278.208 168.143 277.988C168.567 277.652 169.076 277.495 169.575 277.563C170.073 277.63 170.261 277.882 170.147 278.26C170.061 278.504 169.935 278.704 169.66 279.07C169.384 279.436 169.207 279.638 168.95 279.849C168.526 280.185 168.028 280.344 167.53 280.276ZM174.696 276.006C174.447 276.336 174.578 276.649 174.987 276.705C175.397 276.76 175.931 276.538 176.18 276.208C176.429 275.878 176.298 275.564 175.888 275.509C175.479 275.453 174.945 275.675 174.696 276.006ZM171.222 281.703C171.587 281.753 171.99 281.591 172.239 281.261L174.753 277.923C175.002 277.592 174.895 277.361 174.53 277.311C174.164 277.262 173.762 277.424 173.513 277.754L170.998 281.092C170.749 281.422 170.856 281.653 171.222 281.703ZM177.669 278.23C177.809 277.964 177.75 277.75 177.385 277.7C177.019 277.65 176.617 277.812 176.368 278.142L173.853 281.48C173.604 281.811 173.711 282.041 174.076 282.091C174.441 282.141 174.845 281.979 175.093 281.649L176.667 279.56C177.084 279.007 177.738 278.673 178.392 278.762C179.067 278.854 179.11 279.283 178.693 279.836L177.12 281.925C176.871 282.255 176.978 282.486 177.343 282.536C177.708 282.585 178.111 282.424 178.36 282.093L180.108 279.773C180.801 278.853 180.603 278.079 179.463 277.923C178.832 277.837 178.192 277.957 177.68 278.232L177.669 278.23ZM180.099 284.741C181.716 284.961 183.102 284.401 184.137 283.027L186.754 279.555C187.003 279.225 186.896 278.993 186.53 278.944C186.187 278.897 185.853 279.048 185.636 279.255L185.562 279.354L185.551 279.352C185.536 279.016 185.275 278.714 184.522 278.612C183.636 278.491 182.72 278.799 181.932 279.44C181.582 279.727 181.27 280.059 180.941 280.496C180.612 280.934 180.425 281.262 180.318 281.582C180.077 282.307 180.408 282.775 181.294 282.896C182.003 282.993 182.573 282.883 183.088 282.589L183.099 282.59L182.803 282.983C182.258 283.706 181.602 283.961 180.838 283.857C180.506 283.812 180.245 283.688 180.087 283.509C179.988 283.397 179.874 283.323 179.696 283.298C179.386 283.257 179.01 283.431 178.835 283.664C178.755 283.771 178.716 283.903 178.753 284.017C178.857 284.316 179.391 284.644 180.099 284.741ZM184.336 280.948C184.121 281.234 183.909 281.451 183.697 281.619C183.252 281.982 182.823 282.13 182.325 282.062C181.827 281.994 181.68 281.768 181.814 281.363C181.871 281.174 181.995 280.944 182.21 280.659C182.419 280.382 182.631 280.165 182.843 279.997C183.287 279.634 183.716 279.486 184.215 279.554C184.713 279.622 184.86 279.848 184.726 280.253C184.669 280.442 184.545 280.671 184.336 280.948Z" fill="#4B4B4B"/><path d="M123.42 297.377C123.749 297.567 124.222 297.569 124.587 297.352L126.449 296.242C126.487 296.219 126.526 296.219 126.565 296.241L127.93 297.028C129.208 297.765 130.915 297.793 132.134 297.067C133.344 296.346 133.269 295.346 131.991 294.609L129.929 293.42C129.619 293.242 129.224 293.25 128.917 293.433L123.444 296.693C123.079 296.91 123.091 297.187 123.42 297.377ZM128.89 296.377L127.592 295.629C127.553 295.607 127.553 295.584 127.592 295.562L129.493 294.429C129.531 294.406 129.57 294.406 129.609 294.428L130.906 295.177C131.584 295.567 131.587 296.053 130.992 296.408C130.387 296.768 129.568 296.768 128.89 296.377ZM133.268 302.099L133.373 301.866C133.429 301.753 133.496 301.679 133.736 301.536L135.196 300.667C136.338 299.986 136.362 299.234 135.036 298.469C134.397 298.101 133.768 297.907 133.296 297.837C133.006 297.783 132.756 297.841 132.602 297.933C132.333 298.093 132.344 298.302 132.606 298.453C132.693 298.503 132.809 298.547 132.944 298.58C133.244 298.64 133.659 298.767 133.988 298.957C134.724 299.381 134.717 299.749 134.179 300.069L134.064 300.138C134.025 300.16 133.987 300.161 133.948 300.138L132.99 299.586C131.838 298.921 130.651 298.8 129.652 299.395C128.769 299.921 128.841 300.57 129.945 301.207C130.574 301.57 131.241 301.728 131.828 301.696L131.838 301.702L131.763 301.929C131.715 302.081 131.803 302.211 131.997 302.322C132.307 302.501 132.75 302.509 133.038 302.338C133.144 302.275 133.22 302.195 133.268 302.099ZM130.973 300.775C130.441 300.468 130.352 300.192 130.736 299.963C131.159 299.712 131.651 299.759 132.367 300.172L133.141 300.619C133.18 300.641 133.18 300.664 133.142 300.686L132.729 300.932C132.24 301.224 131.603 301.138 130.973 300.775ZM138.831 301.389C139.186 301.177 139.174 300.924 138.854 300.739C138.535 300.555 138.101 300.552 137.746 300.764L134.155 302.903C133.8 303.114 133.821 303.374 134.131 303.553C134.45 303.737 134.885 303.74 135.239 303.528L137.294 302.304C137.995 301.887 138.717 301.752 139.317 302.098C139.463 302.181 139.579 302.293 139.676 302.395C139.735 302.462 139.803 302.524 139.88 302.568C140.2 302.753 140.643 302.738 140.96 302.55C141.142 302.441 141.208 302.299 141.111 302.119C141.033 301.995 140.907 301.854 140.645 301.704C140.094 301.386 139.379 301.312 138.821 301.406L138.811 301.401L138.831 301.389ZM143.568 301.937C143.212 302.149 143.215 302.487 143.573 302.694C143.931 302.901 144.509 302.897 144.865 302.685C145.22 302.474 145.218 302.135 144.859 301.928C144.501 301.721 143.923 301.726 143.568 301.937ZM138.196 305.897C138.516 306.081 138.95 306.084 139.305 305.872L142.896 303.733C143.251 303.522 143.239 303.267 142.92 303.083C142.6 302.899 142.167 302.897 141.812 303.108L138.221 305.247C137.866 305.459 137.877 305.713 138.196 305.897ZM141.806 308.046C143.074 308.777 144.405 308.802 145.327 308.253C146.095 307.795 146.139 307.235 145.248 306.609L144.792 306.29C144.259 305.915 144.248 305.717 144.517 305.557C144.786 305.397 145.22 305.4 145.704 305.679C146.052 305.88 146.305 306.149 146.461 306.408C146.53 306.537 146.588 306.605 146.694 306.666C146.966 306.823 147.351 306.808 147.62 306.648C147.812 306.534 147.83 306.387 147.732 306.196C147.556 305.858 147.197 305.482 146.665 305.175C145.493 304.499 144.278 304.474 143.395 305C142.608 305.469 142.611 306.023 143.464 306.638L143.919 306.957C144.472 307.343 144.473 307.536 144.185 307.707C143.839 307.913 143.309 307.843 142.776 307.536C142.292 307.257 142.098 306.965 141.96 306.626C141.911 306.519 141.833 306.43 141.727 306.368C141.436 306.201 141.002 306.221 140.743 306.376C140.561 306.484 140.504 306.608 140.572 306.783C140.701 307.161 141.09 307.633 141.806 308.046Z" fill="#4B4B4B"/><path d="M270.251 164.639C274.397 159.1 278.378 153.832 278.378 153.832C281.472 150.014 285.21 149.656 287.527 149.979C289.381 150.236 340.885 157.149 366.406 160.573C368.56 160.822 372.062 162.445 368.83 166.951C365.597 171.458 352.873 188.429 351.385 190.374C349.901 192.014 345.332 195.084 338.926 194.241C336.207 193.883 324.393 192.235 311.154 190.388C293.205 187.885 272.635 185.015 268.551 184.499C261.457 183.601 258.335 180.941 262.159 175.586C262.881 174.576 263.907 173.173 265.098 171.56L257.495 170.497C256.915 170.415 256.829 169.614 257.378 169.41L270.251 164.639Z" fill="white" stroke="#E0E0E0" stroke-width="1.12628"/><path d="M296.962 165.098C297.136 165.395 297.601 165.69 298.243 165.777C299.705 165.976 301.096 165.388 302.05 163.982L304.679 160.107C304.867 159.83 304.781 159.636 304.493 159.597C304.194 159.556 303.882 159.696 303.693 159.973L301.064 163.848C300.411 164.81 299.617 165.126 298.786 165.013C298.432 164.965 298.153 164.806 297.976 164.62C297.894 164.528 297.808 164.476 297.697 164.461C297.442 164.426 297.141 164.567 297.004 164.77C296.928 164.882 296.908 165 296.962 165.098Z" fill="#4B4B4B"/><path d="M304.393 166.616C305.212 166.728 306.019 166.554 306.711 166.265C306.85 166.203 306.968 166.118 307.043 166.007C307.169 165.822 307.097 165.66 306.876 165.631C306.765 165.615 306.64 165.639 306.479 165.697C305.911 165.893 305.469 165.975 304.949 165.903C304.295 165.815 303.984 165.49 304.129 164.954C304.182 164.769 304.26 164.618 304.405 164.405C304.43 164.368 304.464 164.353 304.508 164.359L307.62 164.782C307.842 164.812 308.067 164.712 308.186 164.536C308.481 164.101 308.658 163.751 308.737 163.439C308.964 162.642 308.499 162.114 307.458 161.972C306.451 161.835 305.398 162.156 304.578 162.884C304.279 163.146 304.01 163.453 303.653 163.98C303.295 164.507 303.148 164.83 303.071 165.123C302.843 165.94 303.296 166.467 304.393 166.616ZM304.929 163.739C304.885 163.733 304.875 163.712 304.9 163.675C305.038 163.471 305.167 163.317 305.316 163.186C305.795 162.766 306.407 162.577 307.005 162.658C307.603 162.739 307.877 163.049 307.753 163.517C307.714 163.664 307.629 163.824 307.491 164.027C307.466 164.064 307.432 164.08 307.387 164.074L304.929 163.739Z" fill="#4B4B4B"/><path d="M312.523 167.66C312.822 167.701 313.047 167.6 313.458 167.262L317.434 164.005C317.518 163.935 317.566 163.882 317.61 163.817C317.748 163.614 317.684 163.422 317.407 163.385C317.186 163.355 316.967 163.446 316.776 163.602L313.347 166.5L313.325 166.497L314.041 163.23C314.076 163.053 314.008 162.923 313.786 162.893C313.509 162.855 313.219 162.997 313.081 163.201C313.037 163.265 313.01 163.322 312.994 163.401L312.24 167.097C312.161 167.479 312.224 167.62 312.523 167.66Z" fill="#4B4B4B"/><path d="M320.641 168.118L320.647 167.805C320.657 167.666 320.698 167.57 320.855 167.339L321.934 165.748C322.674 164.657 322.392 164.002 320.975 163.81C320.244 163.71 319.59 163.783 319.132 163.923C318.927 163.975 318.78 164.087 318.698 164.207C318.56 164.411 318.627 164.561 318.87 164.594C318.948 164.605 319.067 164.59 319.18 164.565C319.51 164.489 320.006 164.436 320.416 164.491C321.346 164.618 321.451 165.015 321.031 165.635L320.886 165.848C320.861 165.885 320.827 165.9 320.782 165.895L319.575 165.73C318.258 165.551 317.197 165.902 316.576 166.817C316.005 167.659 316.359 168.242 317.544 168.404C318.319 168.509 318.949 168.383 319.529 168.098L319.54 168.099L319.562 168.406C319.585 168.55 319.674 168.633 319.841 168.655C320.117 168.693 320.424 168.563 320.567 168.35C320.618 168.277 320.641 168.189 320.641 168.118ZM318.129 167.756C317.42 167.66 317.178 167.374 317.492 166.911C317.831 166.412 318.391 166.246 319.299 166.369L320.362 166.514C320.406 166.52 320.416 166.542 320.391 166.579L320.058 167.069C319.688 167.614 318.948 167.867 318.129 167.756Z" fill="#4B4B4B"/><path d="M325.832 163.612C326.164 163.657 326.598 163.464 326.786 163.186C326.981 162.899 326.854 162.64 326.522 162.595C326.19 162.549 325.763 162.734 325.568 163.02C325.38 163.298 325.5 163.567 325.832 163.612ZM322.01 168.496C321.834 168.755 321.927 168.939 322.193 168.976C322.459 169.012 322.764 168.882 322.94 168.623L325.444 164.933C325.619 164.674 325.527 164.49 325.261 164.454C324.995 164.417 324.689 164.547 324.513 164.807L322.01 168.496Z" fill="#4B4B4B"/><path d="M326.231 169.585C327.638 169.777 328.779 169.306 329.369 168.437C329.859 167.715 329.666 167.214 328.628 166.962L328.106 166.84C327.352 166.667 327.234 166.449 327.473 166.098C327.718 165.737 328.23 165.534 328.895 165.624C329.315 165.681 329.651 165.828 329.912 166.015C330.018 166.09 330.105 166.122 330.194 166.135C330.415 166.164 330.693 166.041 330.818 165.856C330.912 165.717 330.893 165.603 330.761 165.494C330.483 165.244 330.017 165.039 329.397 164.955C328.157 164.787 327.092 165.197 326.521 166.039C326.038 166.751 326.279 167.269 327.257 167.503L327.78 167.624C328.571 167.813 328.645 168.025 328.394 168.395C328.13 168.783 327.543 169.006 326.78 168.902C326.181 168.821 325.846 168.583 325.559 168.312C325.47 168.229 325.394 168.199 325.305 168.187C325.051 168.152 324.761 168.294 324.635 168.48C324.547 168.609 324.549 168.73 324.637 168.833C324.904 169.153 325.423 169.476 326.231 169.585Z" fill="#4B4B4B"/><path d="M337.25 170.377L337.256 170.064C337.266 169.924 337.307 169.828 337.464 169.597L338.543 168.007C339.284 166.916 339.002 166.261 337.585 166.068C336.854 165.969 336.2 166.041 335.742 166.181C335.536 166.234 335.389 166.345 335.307 166.466C335.169 166.669 335.236 166.819 335.48 166.853C335.557 166.864 335.676 166.849 335.79 166.824C336.119 166.748 336.616 166.694 337.025 166.75C337.956 166.876 338.061 167.274 337.64 167.894L337.496 168.107C337.471 168.144 337.436 168.159 337.392 168.153L336.184 167.989C334.867 167.81 333.806 168.161 333.185 169.076C332.614 169.917 332.968 170.501 334.153 170.662C334.928 170.768 335.559 170.641 336.138 170.356L336.15 170.358L336.172 170.664C336.195 170.809 336.283 170.891 336.449 170.914C336.727 170.952 337.032 170.821 337.177 170.609C337.227 170.535 337.25 170.447 337.25 170.377ZM334.737 170.015C334.029 169.918 333.787 169.633 334.101 169.17C334.44 168.671 335 168.505 335.908 168.628L336.971 168.773C337.016 168.779 337.025 168.8 337 168.837L336.667 169.327C336.297 169.873 335.557 170.126 334.737 170.015ZM338.199 165.556C338.42 165.586 338.645 165.485 338.765 165.31C338.815 165.236 338.836 165.168 338.837 165.077L338.757 164.197C338.749 164.085 338.676 164.015 338.532 163.995C338.321 163.966 338.067 164.073 337.954 164.24C337.898 164.323 337.881 164.402 337.886 164.483L337.989 165.366C338.008 165.479 338.087 165.541 338.199 165.556Z" fill="#4B4B4B"/><path d="M272.293 176.273C272.105 176.55 272.191 176.744 272.49 176.784C272.778 176.823 273.09 176.684 273.278 176.407L274.69 174.326C274.715 174.289 274.75 174.273 274.794 174.279L276.51 174.513C278.016 174.718 279.439 174.083 280.198 172.964C280.957 171.845 280.564 170.963 279.058 170.759L276.733 170.442C276.456 170.405 276.189 170.53 276.039 170.751L272.293 176.273ZM276.998 173.741L275.315 173.512C275.271 173.506 275.261 173.485 275.286 173.448L276.716 171.339C276.742 171.302 276.776 171.287 276.821 171.293L278.504 171.521C279.434 171.648 279.688 172.147 279.224 172.831C278.759 173.516 277.928 173.867 276.998 173.741Z" fill="#4B4B4B"/><path d="M282.973 177.563L282.979 177.251C282.989 177.111 283.03 177.015 283.187 176.784L284.266 175.194C285.006 174.102 284.725 173.448 283.308 173.255C282.577 173.156 281.922 173.228 281.465 173.368C281.259 173.421 281.111 173.532 281.03 173.653C280.892 173.856 280.959 174.006 281.203 174.04C281.28 174.05 281.398 174.036 281.512 174.011C281.842 173.934 282.338 173.881 282.748 173.937C283.678 174.063 283.783 174.461 283.363 175.081L283.219 175.294C283.193 175.331 283.159 175.346 283.115 175.34L281.907 175.176C280.59 174.997 279.529 175.347 278.908 176.263C278.337 177.104 278.691 177.688 279.876 177.849C280.651 177.954 281.281 177.828 281.861 177.543L281.873 177.545L281.895 177.851C281.917 177.996 282.006 178.078 282.172 178.101C282.449 178.138 282.755 178.008 282.9 177.796C282.95 177.722 282.973 177.634 282.973 177.563ZM280.46 177.201C279.752 177.105 279.51 176.819 279.824 176.357C280.162 175.858 280.723 175.691 281.631 175.815L282.694 175.959C282.738 175.965 282.748 175.987 282.723 176.024L282.39 176.514C282.02 177.06 281.28 177.313 280.46 177.201Z" fill="#4B4B4B"/><path d="M284.525 178.421C284.791 178.457 285.097 178.327 285.272 178.068L286.728 175.922C287.23 175.182 287.928 174.671 288.725 174.78C288.946 174.81 289.103 174.882 289.259 174.974C289.317 175.012 289.393 175.043 289.46 175.052C289.736 175.089 290.038 174.948 290.189 174.726C290.276 174.597 290.28 174.466 290.149 174.357C290.028 174.25 289.834 174.143 289.469 174.093C288.816 174.004 288.14 174.216 287.649 174.583L287.638 174.582L287.776 174.378C287.952 174.119 287.859 173.935 287.593 173.898C287.328 173.863 287.021 173.993 286.846 174.251L284.342 177.941C284.166 178.2 284.259 178.385 284.525 178.421Z" fill="#4B4B4B"/><path d="M292.673 173.67C293.006 173.716 293.44 173.522 293.628 173.245C293.822 172.958 293.696 172.698 293.364 172.653C293.032 172.608 292.604 172.792 292.409 173.079C292.221 173.356 292.341 173.625 292.673 173.67ZM288.852 178.555C288.676 178.814 288.769 178.998 289.034 179.034C289.3 179.07 289.606 178.94 289.782 178.681L292.285 174.991C292.461 174.733 292.368 174.548 292.102 174.512C291.837 174.476 291.531 174.606 291.355 174.865L288.852 178.555Z" fill="#4B4B4B"/><path d="M293.073 179.644C294.479 179.835 295.622 179.364 296.211 178.495C296.701 177.774 296.508 177.273 295.47 177.02L294.947 176.899C294.194 176.726 294.076 176.507 294.314 176.156C294.559 175.796 295.072 175.593 295.736 175.683C296.157 175.74 296.493 175.887 296.753 176.074C296.86 176.149 296.947 176.181 297.035 176.193C297.257 176.223 297.534 176.1 297.66 175.914C297.754 175.775 297.734 175.662 297.602 175.553C297.325 175.303 296.859 175.098 296.239 175.014C294.998 174.845 293.934 175.256 293.363 176.098C292.88 176.81 293.121 177.327 294.099 177.561L294.621 177.683C295.413 177.871 295.487 178.083 295.236 178.454C294.972 178.842 294.385 179.065 293.621 178.961C293.023 178.88 292.688 178.642 292.401 178.371C292.312 178.288 292.236 178.258 292.147 178.245C291.892 178.211 291.602 178.353 291.477 178.538C291.389 178.667 291.391 178.789 291.479 178.892C291.746 179.211 292.264 179.534 293.073 179.644Z" fill="#4B4B4B"/><path d="M301.383 180.774C302.202 180.886 303.009 180.712 303.702 180.423C303.84 180.361 303.958 180.276 304.034 180.165C304.159 179.98 304.087 179.819 303.866 179.789C303.755 179.774 303.631 179.797 303.469 179.856C302.901 180.051 302.459 180.132 301.939 180.062C301.286 179.973 300.974 179.648 301.12 179.112C301.172 178.927 301.25 178.776 301.395 178.564C301.42 178.527 301.455 178.511 301.499 178.517L304.61 178.941C304.832 178.97 305.058 178.87 305.177 178.694C305.472 178.26 305.648 177.91 305.728 177.598C305.954 176.8 305.489 176.272 304.449 176.13C303.441 175.994 302.388 176.315 301.569 177.042C301.269 177.304 301.001 177.611 300.643 178.138C300.286 178.665 300.139 178.989 300.061 179.281C299.833 180.098 300.286 180.625 301.383 180.774ZM301.919 177.897C301.875 177.891 301.865 177.87 301.89 177.833C302.028 177.63 302.157 177.475 302.307 177.344C302.785 176.925 303.398 176.735 303.995 176.817C304.594 176.898 304.867 177.208 304.743 177.676C304.704 177.822 304.62 177.982 304.481 178.186C304.456 178.223 304.422 178.238 304.378 178.232L301.919 177.897Z" fill="#4B4B4B"/><path d="M305.375 180.803C305.199 181.062 305.292 181.246 305.558 181.282C305.823 181.318 306.13 181.188 306.305 180.929L307.905 178.571C308.351 177.915 309.138 177.557 309.857 177.655C310.655 177.763 310.76 178.232 310.277 178.944L308.708 181.256C308.533 181.515 308.625 181.699 308.891 181.736C309.157 181.772 309.463 181.641 309.638 181.383L311.332 178.886C312.017 177.878 311.775 177.128 310.624 176.971C309.904 176.873 309.219 177.063 308.732 177.371L308.721 177.369L308.809 177.239C308.984 176.981 308.892 176.796 308.626 176.76C308.36 176.724 308.054 176.854 307.879 177.113L305.375 180.803Z" fill="#4B4B4B"/><path d="M315.537 182.639C315.835 182.68 316.061 182.579 316.472 182.241L320.448 178.984C320.531 178.914 320.58 178.86 320.624 178.796C320.762 178.592 320.698 178.402 320.421 178.364C320.199 178.334 319.98 178.425 319.79 178.581L316.36 181.479L316.338 181.476L317.055 178.209C317.09 178.032 317.021 177.902 316.8 177.871C316.523 177.834 316.233 177.976 316.095 178.179C316.051 178.244 316.024 178.301 316.007 178.38L315.254 182.075C315.175 182.459 315.238 182.598 315.537 182.639Z" fill="#4B4B4B"/><path d="M320.987 183.442C322.017 183.582 323.093 183.244 323.889 182.534C324.218 182.245 324.481 181.948 324.832 181.429C325.177 180.921 325.329 180.608 325.414 180.286C325.64 179.489 325.16 178.949 324.13 178.809C323.101 178.669 322.03 178.998 321.228 179.717C320.899 180.006 320.637 180.303 320.292 180.812C319.94 181.33 319.789 181.643 319.703 181.964C319.483 182.753 319.957 183.302 320.987 183.442ZM321.476 182.72C320.889 182.641 320.627 182.332 320.751 181.864C320.825 181.612 320.956 181.367 321.244 180.941C321.532 180.516 321.723 180.289 321.974 180.061C322.453 179.641 323.054 179.45 323.641 179.53C324.228 179.61 324.49 179.919 324.367 180.386C324.292 180.639 324.168 180.875 323.879 181.3C323.591 181.726 323.394 181.961 323.143 182.19C322.665 182.609 322.063 182.8 321.476 182.72Z" fill="#4B4B4B"/><path d="M328.89 178.598C329.223 178.644 329.656 178.45 329.844 178.173C330.039 177.886 329.913 177.626 329.58 177.581C329.248 177.536 328.821 177.72 328.626 178.007C328.438 178.284 328.558 178.553 328.89 178.598ZM325.068 183.483C324.893 183.742 324.985 183.926 325.251 183.962C325.517 183.998 325.823 183.868 325.999 183.609L328.502 179.919C328.678 179.66 328.585 179.476 328.319 179.44C328.054 179.404 327.748 179.534 327.572 179.793L325.068 183.483Z" fill="#4B4B4B"/><path d="M329.237 184.504C329.569 184.549 329.836 184.424 329.98 184.211C330.125 183.998 330.059 183.828 329.771 183.788C329.206 183.712 329.156 183.554 329.476 183.082L331.145 180.622C331.17 180.585 331.205 180.57 331.25 180.576L331.947 180.671C332.202 180.705 332.433 180.595 332.559 180.41C332.685 180.225 332.629 180.076 332.374 180.041L331.676 179.947C331.632 179.94 331.622 179.919 331.647 179.882L332.306 178.911C332.482 178.652 332.389 178.468 332.123 178.432C331.858 178.395 331.552 178.526 331.376 178.784L330.717 179.756C330.692 179.793 330.657 179.808 330.613 179.802L330.314 179.761C330.06 179.726 329.827 179.836 329.702 180.021C329.577 180.207 329.633 180.355 329.888 180.39L330.186 180.43C330.23 180.437 330.241 180.459 330.215 180.496L328.527 182.983C327.9 183.908 328.041 184.341 329.126 184.489L329.237 184.504Z" fill="#4B4B4B"/><path d="M337.997 181.21C338.173 180.951 338.08 180.766 337.814 180.73C337.549 180.694 337.242 180.824 337.067 181.083L335.467 183.441C335.022 184.098 334.257 184.458 333.537 184.36C332.74 184.252 332.645 183.785 333.129 183.073L334.697 180.761C334.873 180.502 334.78 180.318 334.515 180.281C334.249 180.245 333.942 180.376 333.767 180.634L332.073 183.131C331.389 184.139 331.619 184.888 332.771 185.044C333.49 185.142 334.153 184.95 334.64 184.642L334.651 184.643L334.564 184.773C334.388 185.032 334.481 185.216 334.746 185.253C335.012 185.288 335.318 185.158 335.493 184.9L337.997 181.21Z" fill="#4B4B4B"/><path d="M337.491 185.626C337.757 185.662 338.063 185.532 338.239 185.273L339.694 183.127C340.196 182.388 340.894 181.876 341.691 181.984C341.913 182.015 342.07 182.087 342.225 182.179C342.284 182.217 342.36 182.247 342.426 182.256C342.703 182.294 343.004 182.153 343.155 181.931C343.243 181.802 343.247 181.671 343.115 181.562C342.994 181.455 342.801 181.348 342.435 181.298C341.782 181.209 341.107 181.42 340.615 181.788L340.604 181.786L340.742 181.583C340.918 181.324 340.825 181.14 340.56 181.104C340.294 181.067 339.987 181.197 339.812 181.457L337.309 185.146C337.133 185.405 337.226 185.589 337.491 185.626Z" fill="#4B4B4B"/><path d="M343.297 186.475C344.117 186.587 344.923 186.414 345.616 186.124C345.755 186.062 345.873 185.977 345.948 185.866C346.073 185.682 346.001 185.52 345.78 185.49C345.669 185.475 345.544 185.498 345.384 185.557C344.815 185.753 344.373 185.834 343.853 185.763C343.199 185.674 342.888 185.349 343.034 184.813C343.086 184.629 343.165 184.478 343.309 184.265C343.334 184.228 343.369 184.213 343.413 184.219L346.525 184.642C346.746 184.672 346.972 184.571 347.091 184.395C347.386 183.961 347.563 183.611 347.642 183.298C347.868 182.501 347.404 181.973 346.363 181.832C345.355 181.694 344.303 182.016 343.483 182.743C343.184 183.005 342.915 183.312 342.557 183.839C342.2 184.367 342.053 184.69 341.975 184.982C341.748 185.8 342.201 186.327 343.297 186.475ZM343.834 183.599C343.789 183.593 343.78 183.571 343.805 183.534C343.943 183.331 344.072 183.177 344.221 183.046C344.699 182.626 345.312 182.436 345.91 182.518C346.508 182.599 346.781 182.909 346.657 183.377C346.619 183.523 346.534 183.684 346.396 183.887C346.371 183.924 346.336 183.939 346.292 183.933L343.834 183.599Z" fill="#4B4B4B"/><path d="M347.135 186.362C346.941 186.649 347.065 186.928 347.408 186.975C347.751 187.021 348.203 186.82 348.397 186.534C348.592 186.247 348.467 185.968 348.123 185.921C347.78 185.874 347.329 186.075 347.135 186.362Z" fill="#4B4B4B"/><path d="M286.073 163.531L290.87 157.27C291.193 156.848 290.806 156.254 290.29 156.38L285.597 157.522L283.936 157.341C283.736 157.32 283.539 157.407 283.42 157.57L281.507 160.206C281.273 160.527 281.437 160.983 281.822 161.082L283.287 161.457L285.21 163.568C285.446 163.827 285.86 163.81 286.073 163.531Z" fill="#00C2FF"/><path d="M292.098 158.404C292.603 158.66 293.063 159.319 292.436 160.364C291.705 161.584 290.119 161.876 289.465 162.019" stroke="#00C2FF" stroke-width="0.985495" stroke-linecap="round" stroke-linejoin="round"/><path d="M294.571 156.707C295.705 157.29 296.238 159.092 295.045 160.816C294.106 162.173 292.093 163.564 289.145 164.093" stroke="#00C2FF" stroke-width="0.985495" stroke-linecap="round" stroke-linejoin="round"/><path opacity="0.29" d="M289.592 261.494L268.342 287.719" stroke="#2FE3FF" stroke-width="2.81571" stroke-linecap="round" stroke-linejoin="round"/><path opacity="0.29" d="M297.033 253.111L293.543 257.107" stroke="#2FE3FF" stroke-width="2.81571" stroke-linecap="round" stroke-linejoin="round"/><path opacity="0.29" d="M248.671 244.445L237.658 257.697" stroke="#2FE3FF" stroke-width="2.81571" stroke-linecap="round" stroke-linejoin="round"/><path opacity="0.29" d="M262.469 261.945L246.129 282.172" stroke="#2FE3FF" stroke-width="2.81571" stroke-linecap="round" stroke-linejoin="round"/><g filter="url(#filter3_d_603_69480)"><path d="M122.95 395.914C121.751 399.162 118.999 401.589 115.627 402.374L88.082 408.78C85.2658 409.435 82.8503 406.697 83.8518 403.984L87.406 394.358C88.6051 391.11 91.3568 388.683 94.7289 387.899L122.274 381.493C125.09 380.838 127.506 383.576 126.504 386.288L122.95 395.914Z" fill="white"/><path d="M115.524 401.932L87.9797 408.338C85.5152 408.912 83.4019 406.516 84.2779 404.142L87.8322 394.516C88.9781 391.412 91.6085 389.092 94.832 388.342L122.377 381.935C124.842 381.363 126.955 383.758 126.078 386.132L122.525 395.758C121.378 398.863 118.748 401.183 115.524 401.932Z" stroke="#E5E5E5" stroke-width="0.908063"/></g><path d="M95.6061 399.609C95.993 399.523 96.3424 399.211 96.4767 398.787L97.4202 395.81C97.7935 394.63 97.3187 393.926 96.1107 394.194C95.4419 394.342 94.8382 394.699 94.4178 395.165L94.4064 395.168L95.0919 393.004C95.2263 392.58 95.0364 392.387 94.6489 392.473C94.2619 392.559 93.9126 392.871 93.7782 393.295L91.7031 399.846C91.5688 400.27 91.7586 400.461 92.1462 400.376C92.5332 400.29 92.8825 399.978 93.0168 399.554L93.866 396.874C94.0905 396.164 94.6339 395.586 95.3254 395.433C96.0408 395.274 96.2367 395.688 96.0121 396.398L95.163 399.078C95.0286 399.502 95.2191 399.695 95.6061 399.609ZM100.11 398.673C101.247 398.421 102.293 397.668 102.915 396.635C103.167 396.217 103.342 395.838 103.534 395.231C103.726 394.624 103.783 394.271 103.778 393.909C103.766 393.018 103.076 392.649 101.938 392.901C100.789 393.156 99.7431 393.91 99.1215 394.942C98.8689 395.36 98.6945 395.74 98.5023 396.347C98.31 396.954 98.2527 397.307 98.258 397.668C98.27 398.56 98.9603 398.928 100.11 398.673ZM100.472 397.528C99.9444 397.645 99.653 397.465 99.6339 397.043C99.6303 396.778 99.6906 396.52 99.8393 396.05C99.988 395.581 100.091 395.323 100.279 395.005C100.589 394.51 101.047 394.164 101.575 394.047C102.103 393.93 102.383 394.112 102.402 394.534C102.402 394.811 102.346 395.058 102.197 395.528C102.048 395.997 101.941 396.266 101.757 396.573C101.447 397.067 101 397.411 100.472 397.528ZM105.505 393.154C105.552 393.143 105.58 393.159 105.565 393.204L104.684 395.988C104.303 397.19 104.602 397.624 105.833 397.351L105.939 397.328C106.419 397.221 106.734 396.917 106.835 396.597C106.926 396.31 106.818 396.1 106.419 396.157C105.952 396.217 105.867 396.109 106.008 395.662L106.879 392.913C106.893 392.867 106.924 392.839 106.971 392.829L107.569 392.696C107.898 392.623 108.171 392.382 108.265 392.084C108.359 391.787 108.213 391.627 107.885 391.7L107.287 391.833C107.24 391.843 107.224 391.825 107.238 391.779L107.557 390.771C107.692 390.347 107.502 390.156 107.126 390.239C106.739 390.325 106.378 390.639 106.244 391.063L105.924 392.071C105.91 392.116 105.868 392.147 105.821 392.157L105.657 392.194C105.328 392.267 105.052 392.52 104.957 392.817C104.863 393.115 105.012 393.263 105.341 393.19L105.505 393.154ZM110.076 396.463C110.99 396.26 111.696 395.859 112.327 395.347C112.546 395.17 112.687 395 112.756 394.783C112.854 394.474 112.716 394.292 112.375 394.367C112.2 394.406 112.022 394.52 111.837 394.657C111.397 394.978 111.036 395.186 110.556 395.292C109.911 395.435 109.559 395.236 109.542 394.739C109.535 394.624 109.544 394.495 109.594 394.334C109.609 394.289 109.639 394.26 109.686 394.25L112.841 393.55C113.134 393.485 113.357 393.266 113.44 393.002C113.607 392.475 113.675 392.056 113.673 391.715C113.654 390.846 112.995 390.45 111.834 390.707C110.707 390.957 109.662 391.71 109.041 392.743C108.811 393.124 108.602 393.574 108.421 394.147C108.24 394.72 108.187 395.125 108.192 395.454C108.204 396.346 108.868 396.732 110.076 396.463ZM112.3 392.712C112.285 392.758 112.255 392.786 112.207 392.796L109.991 393.288C109.944 393.298 109.928 393.281 109.942 393.235C110.004 393.04 110.071 392.897 110.162 392.75C110.455 392.269 110.961 391.912 111.5 391.793C112.028 391.675 112.367 391.845 112.378 392.258C112.382 392.385 112.362 392.517 112.3 392.712ZM115.565 395.193C116.034 395.089 116.325 394.79 116.43 394.458C116.521 394.172 116.429 393.979 116.057 394.019C115.743 394.046 115.657 393.937 115.781 393.548L117.529 388.027C117.664 387.604 117.462 387.414 117.087 387.498C116.699 387.583 116.35 387.895 116.216 388.319L114.434 393.942C114.1 394.996 114.321 395.469 115.471 395.214L115.565 395.193Z" fill="#4B4B4B"/><g filter="url(#filter4_d_603_69480)"><path d="M181.327 449.923C177.778 449.316 174.772 446.966 173.328 443.668L161.529 416.729C160.322 413.974 162.662 410.983 165.626 411.49L176.144 413.289C179.693 413.896 182.698 416.247 184.143 419.545L195.942 446.483C197.148 449.237 194.809 452.228 191.845 451.721L181.327 449.923Z" fill="white"/><path d="M173.76 443.479L161.961 416.54C160.906 414.13 162.953 411.513 165.546 411.956L176.064 413.755C179.456 414.335 182.329 416.582 183.71 419.734L195.509 446.673C196.565 449.083 194.518 451.7 191.925 451.257L181.406 449.458C178.014 448.877 175.141 446.631 173.76 443.479Z" stroke="#E5E5E5" stroke-width="0.94431"/></g><path d="M169.487 420.823C169.655 421.2 170.046 421.488 170.505 421.531L172.645 421.732L172.65 421.744C172.371 421.947 172.256 422.384 172.602 423.161C173.009 424.074 173.885 424.812 174.958 425.186C175.479 425.366 175.99 425.469 176.662 425.532C177.333 425.595 177.793 425.583 178.192 425.49C179.01 425.293 179.278 424.662 178.871 423.749C178.525 422.973 178.028 422.5 177.501 422.199L177.496 422.188C177.856 422.167 178.013 421.985 177.846 421.608C177.678 421.231 177.287 420.943 176.828 420.9L169.936 420.253C169.476 420.21 169.32 420.447 169.487 420.823ZM173.688 422.924C173.47 422.433 173.531 422.089 174.027 421.971C174.253 421.916 174.598 421.916 175.071 421.96C175.543 422.004 175.919 422.073 176.216 422.176C176.865 422.402 177.251 422.788 177.469 423.279C177.683 423.758 177.622 424.102 177.125 424.219C176.9 424.275 176.555 424.275 176.082 424.231C175.609 424.187 175.233 424.118 174.936 424.014C174.288 423.789 173.901 423.403 173.688 422.924ZM177.332 431.346L177.579 431.205C177.705 431.14 177.814 431.118 178.125 431.147L180.016 431.325C181.496 431.464 182.011 430.801 181.315 429.238C180.98 428.485 180.539 427.897 180.158 427.522C179.932 427.282 179.667 427.169 179.468 427.151C179.12 427.118 178.992 427.314 179.13 427.622C179.176 427.725 179.251 427.841 179.352 427.96C179.583 428.211 179.875 428.599 180.048 428.988C180.434 429.855 180.186 430.181 179.49 430.116L179.34 430.102C179.291 430.098 179.256 430.072 179.235 430.027L178.732 428.897C178.127 427.539 177.134 426.647 175.84 426.526C174.696 426.418 174.334 427.052 174.914 428.352C175.244 429.094 175.743 429.677 176.295 430.035L176.3 430.046L176.083 430.201C175.94 430.308 175.934 430.482 176.036 430.71C176.198 431.076 176.594 431.375 176.967 431.41C177.104 431.423 177.225 431.402 177.332 431.346ZM176.127 428.641C175.848 428.014 175.949 427.706 176.447 427.753C176.994 427.804 177.407 428.171 177.784 429.016L178.19 429.929C178.211 429.974 178.196 429.994 178.146 429.99L177.612 429.94C176.977 429.88 176.458 429.383 176.127 428.641ZM182.826 434.371C183.287 434.414 183.443 434.177 183.276 433.801C183.108 433.424 182.718 433.136 182.257 433.093L177.606 432.656C177.145 432.613 176.994 432.861 177.156 433.226C177.324 433.603 177.714 433.891 178.175 433.934L180.836 434.184C181.744 434.269 182.486 434.623 182.801 435.331C182.877 435.502 182.909 435.68 182.93 435.835C182.939 435.934 182.96 436.035 183 436.126C183.168 436.503 183.578 436.782 183.989 436.82C184.225 436.842 184.378 436.758 184.408 436.531C184.42 436.368 184.398 436.159 184.26 435.851C183.971 435.2 183.373 434.663 182.807 434.38L182.801 434.369L182.826 434.371ZM187.424 439.395C187.884 439.438 188.041 439.201 187.873 438.824C187.705 438.448 187.315 438.16 186.854 438.116L179.74 437.449C179.279 437.405 179.122 437.642 179.29 438.018C179.458 438.395 179.849 438.684 180.309 438.726L181.528 438.841L182.782 439.702L180.904 440.838C180.716 440.952 180.688 441.157 180.795 441.397C180.953 441.75 181.368 442.041 181.741 442.076C181.865 442.088 181.97 442.054 182.063 441.997L184.106 440.668L185.888 441.94C186.093 442.08 186.278 442.174 186.464 442.192C186.8 442.223 186.919 441.983 186.793 441.697C186.706 441.503 186.558 441.358 186.331 441.195L183.12 438.99L187.424 439.395Z" fill="#4B4B4B"/><path d="M249.277 358.511C244.391 358.426 240.498 354.396 240.583 349.51C240.668 344.624 244.698 340.732 249.584 340.817C254.471 340.902 258.363 344.932 258.278 349.818C258.193 354.704 254.163 358.596 249.277 358.511Z" fill="#FFC6B7"/><path d="M188.93 279.73C192.426 281.842 197.072 280.553 199.309 276.851C201.545 273.15 200.524 268.437 197.028 266.325C193.533 264.214 188.886 265.503 186.65 269.204C184.414 272.906 185.435 277.618 188.93 279.73Z" fill="#FFC6B7"/><path d="M186.31 270.111L195.491 272.321L191.348 281.108L183.258 277.293L186.31 270.111Z" fill="#FFC6B7"/><path d="M168.429 318.803C170.12 305.765 179.881 283.706 184.55 274.307C186.882 275.145 191.984 277.59 193.733 280.662C192.814 281.659 190.5 288.444 189.458 291.711C181.743 306.174 166.738 331.84 168.429 318.803Z" fill="#2FE3FF"/><path d="M222.394 296.954C229.64 297.08 235.616 291.308 235.742 284.062C235.868 276.816 230.096 270.84 222.85 270.714C215.604 270.588 209.628 276.36 209.502 283.606C209.376 290.852 215.148 296.828 222.394 296.954Z" fill="#FF9600"/><path d="M228.549 307.461C232.858 307.536 236.412 304.104 236.487 299.795C236.562 295.485 233.129 291.931 228.82 291.856C224.511 291.781 220.957 295.214 220.882 299.523C220.807 303.832 224.24 307.386 228.549 307.461Z" fill="#FF9600"/><path d="M243.782 309.481C239.306 302.643 207.603 284.704 196.694 284.514C196.694 284.514 188.757 283.46 183.551 291.325C178.345 299.191 142.846 355.163 140.982 358.736C138.651 363.201 138.424 372.279 142.94 375.666C145.334 377.462 155.706 384.552 164.347 389.194C171.737 393.164 180.762 396.661 183.953 397.782C187.144 398.904 198.624 399.982 203.168 393.879C207.712 387.775 243.639 335.528 245.49 332.744C247.803 329.264 247.931 315.819 243.782 309.481Z" fill="#FFC6B7"/><path d="M243.782 309.481C239.306 302.643 207.603 284.704 196.694 284.514C196.694 284.514 188.757 283.46 183.551 291.325C178.345 299.191 142.846 355.163 140.982 358.736C138.651 363.201 138.424 372.279 142.94 375.666C145.334 377.462 155.706 384.552 164.347 389.194C171.737 393.164 180.762 396.661 183.953 397.782C187.144 398.904 198.624 399.982 203.168 393.879C207.712 387.775 243.639 335.528 245.49 332.744C247.803 329.264 247.931 315.819 243.782 309.481Z" fill="#FFC6B7"/><path d="M199.632 308.759C200.901 307.455 204.376 307.301 206.042 307.664C205.777 308.769 205.369 311.208 203.967 312.648C202.214 314.449 200.181 313.503 199.556 312.894C198.931 312.285 198.045 310.389 199.632 308.759Z" fill="#EE9583"/><path d="M206.987 314.272C205.894 314.052 205.829 316.453 200.159 315.159C199.737 315.063 199.299 315.284 199.15 315.691C196.898 321.858 195.424 328.282 198.932 328.988C203.487 329.903 208.126 314.501 206.987 314.272Z" fill="#B33030"/><path d="M151.754 341.083L160.336 346.96L198.142 383.382L207.021 388.497C210.918 382.915 216.116 375.412 221.429 367.721C220.286 364.344 218.201 359.706 214.11 353.463C205.5 340.326 178.08 326.379 163.879 321.99C159.766 328.448 155.542 335.097 151.754 341.083Z" fill="#2FE3FF"/><path d="M204.659 323.051C204.069 322.698 203.41 322.438 202.697 322.295C200.489 321.851 198.319 322.64 196.901 324.189C196.645 326.756 197.133 328.625 198.933 328.987C201.01 329.404 203.103 326.432 204.659 323.051Z" fill="#FF4B4B"/><path d="M238.801 304.725C241.191 306.569 242.953 308.215 243.782 309.481C247.93 315.818 247.803 329.264 245.489 332.744C244.772 333.823 238.587 342.835 231.017 353.824C227.953 350.066 229.079 346.319 230.214 344.728L234.7 337.766C233.807 336.53 231.373 333.16 228.788 329.567C223.716 323.238 232.739 311.039 238.801 304.725Z" fill="#FFB67A"/><path d="M192.892 287.587C189.156 293.03 184.814 299.355 182.979 299.905C181.529 300.338 179.444 300.338 177.586 300.191C180.42 295.998 182.563 292.82 183.551 291.325C187.285 285.684 192.423 284.631 195.031 284.486C194.359 285.45 193.637 286.501 192.892 287.587Z" fill="#FFB67A"/><path d="M218.679 376.038C223.659 376.125 227.767 372.157 227.853 367.177C227.94 362.197 223.973 358.089 218.992 358.002C214.012 357.916 209.904 361.883 209.818 366.863C209.731 371.844 213.698 375.951 218.679 376.038Z" fill="#2FE3FF"/><path d="M135.537 347.156C135.195 344.872 135.227 339.52 138.086 336.387" stroke="#3D3D3D" stroke-width="9.57339" stroke-linecap="round" stroke-linejoin="round"/><path d="M249.971 348.324L214.877 358.51L217.678 368.159L252.772 357.974L249.971 348.324Z" fill="#FFC6B7"/><path d="M231.274 340.711C234.187 342.471 238.059 341.396 239.923 338.312C241.786 335.227 240.935 331.3 238.022 329.54C235.109 327.78 231.237 328.854 229.374 331.939C227.51 335.024 228.361 338.951 231.274 340.711Z" fill="#FFC6B7"/><path d="M240.755 350.999L214.877 358.51L217.678 368.159L243.556 360.648L240.755 350.999Z" fill="#2FE3FF"/><path d="M184.693 335.709C183.709 332.875 182.38 326.15 184.933 321.914" stroke="white" stroke-width="2.81571" stroke-linecap="round" stroke-linejoin="round"/><path d="M190.709 340.178C190.813 334.186 186.544 331.014 190.949 326.383" stroke="white" stroke-width="2.81571" stroke-linecap="round" stroke-linejoin="round"/><path d="M211.115 382.606C209.466 377.204 206.386 370.115 200.548 364.069C192.792 356.04 170.503 344.504 153.718 338.195C147.015 348.841 141.675 357.408 140.982 358.735C138.651 363.201 138.424 372.279 142.94 375.666C145.334 377.462 155.706 384.552 164.347 389.194C171.737 393.164 180.762 396.66 183.953 397.783C187.144 398.904 198.624 399.982 203.167 393.879C204.273 392.394 207.236 388.177 211.115 382.606Z" fill="#0084C2"/><path d="M224.953 310.799C224.985 308.969 221.934 304.199 217.444 303.346C212.953 302.494 208.827 304.886 208.612 307.17C208.397 309.455 210.34 311.038 212.663 311.078C215.443 311.127 215.947 310.431 218.341 310.473C220.734 310.514 221.01 312.877 223.121 312.914C223.754 312.925 224.921 312.629 224.953 310.799Z" fill="white"/><path d="M193.702 294.339C195.182 293.262 200.838 293.019 204.115 296.207C207.393 299.394 207.803 304.145 206.057 305.633C204.31 307.121 201.898 306.439 200.531 304.561C198.896 302.313 199.175 301.5 197.767 299.565C196.358 297.63 194.265 298.761 193.022 297.054C192.65 296.541 192.222 295.416 193.702 294.339Z" fill="white"/><path d="M203.923 306.442C202.664 306.448 201.392 305.74 200.534 304.56C199.685 303.394 199.352 302.614 199.031 301.863C198.852 301.444 198.677 301.034 198.418 300.571C199.07 300.159 199.846 299.926 200.675 299.94C202.938 299.979 204.741 301.846 204.701 304.109C204.686 304.981 204.4 305.786 203.923 306.442Z" fill="#3D3D3D"/><path d="M215.523 310.803C215.554 310.611 215.572 310.413 215.576 310.212C215.615 307.949 213.812 306.083 211.549 306.044C210.406 306.024 209.365 306.474 208.608 307.216C208.423 309.475 210.356 311.037 212.663 311.077C213.979 311.1 214.785 310.956 215.523 310.803Z" fill="#3D3D3D"/><path d="M196.034 398.07C196.525 393.719 189.286 385.858 185.151 383.098C180.524 380.011 148.337 362.48 141.717 362.624C140.943 362.641 140.257 362.736 139.651 362.895C138.845 367.473 139.579 373.146 142.94 375.667C145.335 377.462 155.706 384.552 164.347 389.194C171.737 393.164 180.762 396.661 183.953 397.783C185.961 398.489 191.254 399.178 196.034 398.07Z" fill="#037AB2"/><path d="M198.777 380.1C196.92 381.474 192.179 383.958 188.07 382.903" stroke="#3D3D3D" stroke-width="9.57339" stroke-linecap="round" stroke-linejoin="round"/><path d="M67.2772 300.406L70.1555 296.83C79.1372 298.499 82.7595 294.656 83.7006 293.158C84.6423 291.661 85.6229 283.828 77.6348 283.689C69.6461 283.55 66.7583 287.724 65.6595 292.176C64.8671 295.387 66.2047 298.651 67.2772 300.406Z" fill="#DA8E74"/><defs><filter id="filter0_d_603_69480" x="115.406" y="264.535" width="39.0488" height="20.9411" filterUnits="userSpaceOnUse" color-interpolation-filters="sRGB"><feFlood flood-opacity="0" result="BackgroundImageFix"/><feColorMatrix in="SourceAlpha" type="matrix" values="0 0 0 0 0 0 0 0 0 0 0 0 0 0 0 0 0 0 127 0" result="hardAlpha"/><feOffset dy="1.40785"/><feColorMatrix type="matrix" values="0 0 0 0 0.898039 0 0 0 0 0.898039 0 0 0 0 0.898039 0 0 0 1 0"/><feBlend mode="normal" in2="BackgroundImageFix" result="effect1_dropShadow_603_69480"/><feBlend mode="normal" in="SourceGraphic" in2="effect1_dropShadow_603_69480" result="shape"/></filter><filter id="filter1_d_603_69480" x="112.76" y="287.203" width="47.1543" height="30.736" filterUnits="userSpaceOnUse" color-interpolation-filters="sRGB"><feFlood flood-opacity="0" result="BackgroundImageFix"/><feColorMatrix in="SourceAlpha" type="matrix" values="0 0 0 0 0 0 0 0 0 0 0 0 0 0 0 0 0 0 127 0" result="hardAlpha"/><feOffset dy="1.40785"/><feColorMatrix type="matrix" values="0 0 0 0 0.898039 0 0 0 0 0.898039 0 0 0 0 0.898039 0 0 0 1 0"/><feBlend mode="normal" in2="BackgroundImageFix" result="effect1_dropShadow_603_69480"/><feBlend mode="normal" in="SourceGraphic" in2="effect1_dropShadow_603_69480" result="shape"/></filter><filter id="filter2_d_603_69480" x="149.691" y="269.34" width="47.4551" height="21.9625" filterUnits="userSpaceOnUse" color-interpolation-filters="sRGB"><feFlood flood-opacity="0" result="BackgroundImageFix"/><feColorMatrix in="SourceAlpha" type="matrix" values="0 0 0 0 0 0 0 0 0 0 0 0 0 0 0 0 0 0 127 0" result="hardAlpha"/><feOffset dy="1.40785"/><feColorMatrix type="matrix" values="0 0 0 0 0.898039 0 0 0 0 0.898039 0 0 0 0 0.898039 0 0 0 1 0"/><feBlend mode="normal" in2="BackgroundImageFix" result="effect1_dropShadow_603_69480"/><feBlend mode="normal" in="SourceGraphic" in2="effect1_dropShadow_603_69480" result="shape"/></filter><filter id="filter3_d_603_69480" x="83.6211" y="381.395" width="44.9294" height="29.3005" filterUnits="userSpaceOnUse" color-interpolation-filters="sRGB"><feFlood flood-opacity="0" result="BackgroundImageFix"/><feColorMatrix in="SourceAlpha" type="matrix" values="0 0 0 0 0 0 0 0 0 0 0 0 0 0 0 0 0 0 127 0" result="hardAlpha"/><feOffset dx="1.81612" dy="1.81612"/><feColorMatrix type="matrix" values="0 0 0 0 0.898039 0 0 0 0 0.898039 0 0 0 0 0.898039 0 0 0 1 0"/><feBlend mode="normal" in2="BackgroundImageFix" result="effect1_dropShadow_603_69480"/><feBlend mode="normal" in="SourceGraphic" in2="effect1_dropShadow_603_69480" result="shape"/></filter><filter id="filter4_d_603_69480" x="159.631" y="411.434" width="36.6344" height="41.9196" filterUnits="userSpaceOnUse" color-interpolation-filters="sRGB"><feFlood flood-opacity="0" result="BackgroundImageFix"/><feColorMatrix in="SourceAlpha" type="matrix" values="0 0 0 0 0 0 0 0 0 0 0 0 0 0 0 0 0 0 127 0" result="hardAlpha"/><feOffset dx="-1.57386" dy="1.57386"/><feColorMatrix type="matrix" values="0 0 0 0 0.898039 0 0 0 0 0.898039 0 0 0 0 0.898039 0 0 0 1 0"/><feBlend mode="normal" in2="BackgroundImageFix" result="effect1_dropShadow_603_69480"/><feBlend mode="normal" in="SourceGraphic" in2="effect1_dropShadow_603_69480" result="shape"/></filter></defs></svg>