<svg width="334" height="264" viewBox="0 0 334 264" fill="none" xmlns="http://www.w3.org/2000/svg"><path d="M296.23 3.13372C280.651 -2.20561 264.038 2.69127 253.709 14.2412L253.707 14.1976C245.298 24.4075 237.935 26.7932 226.218 22.7779L226.216 22.7875C209.841 17.6088 192.238 26.4254 186.639 42.7615C180.957 59.3419 189.79 77.3897 206.37 83.0723C222.952 88.755 240.999 79.9207 246.681 63.3403C247.213 61.7929 247.616 60.2329 247.898 58.6713C252.41 67.5844 260.268 74.8148 270.464 78.3096C270.731 78.4009 270.998 78.4892 271.265 78.5746C269.925 92.5126 278.231 106.064 292.057 110.803C308.232 116.347 325.84 107.728 331.384 91.5522C335.951 78.2263 330.907 63.9288 319.943 56.2047C320.302 55.356 320.633 54.4889 320.937 53.6044C328.05 32.8451 316.989 10.2487 296.23 3.13372Z" fill="#3D3D3D"/><path d="M302.427 214.033C314.61 212.784 320.654 198.617 313.128 188.958L289.948 159.218L249.785 219.429L302.427 214.033Z" fill="#FFA0DA"/><path d="M261.761 46.192C227.259 35.0526 190.259 53.9917 179.12 88.4934L147.096 187.683C139.832 210.183 145.357 233.742 159.648 250.501H259.494C264.965 244.102 269.288 236.537 272.038 228.023L304.062 128.832C315.201 94.3307 296.261 57.3313 261.761 46.192Z" fill="#DA8E74"/><path d="M196.832 75.0516C195.046 80.5824 189.116 83.6183 183.586 81.8326C178.053 80.047 175.017 74.1157 176.803 68.585C178.589 63.0542 184.52 60.0182 190.051 61.8038C195.581 63.5895 198.617 69.5207 196.832 75.0516Z" fill="#DA8E74"/><path d="M209.568 84.4939C211.864 77.3829 219.49 73.4793 226.602 75.7753C233.712 78.0713 237.616 85.697 235.32 92.8081L233.165 99.4843C230.869 106.595 223.243 110.499 216.131 108.203C209.021 105.907 205.116 98.2812 207.412 91.1701L209.568 84.4939Z" fill="white"/><path d="M240.564 94.4998C242.86 87.3887 250.486 83.4852 257.596 85.7812C264.707 88.0769 268.612 95.7029 266.316 102.814L264.16 109.49C261.864 116.601 254.238 120.505 247.126 118.209C240.017 115.913 236.112 108.287 238.408 101.176L240.564 94.4998Z" fill="white"/><path d="M242.054 103.076C241.998 103.216 241.945 103.359 241.898 103.505L240.743 107.08C239.766 110.109 241.429 113.357 244.457 114.335C247.485 115.313 250.734 113.65 251.711 110.622L252.866 107.046C253.844 104.018 252.18 100.77 249.152 99.7916C248.856 99.6959 248.558 99.6254 248.26 99.5791C248.257 101.836 246.428 103.665 244.171 103.665C243.396 103.665 242.671 103.45 242.054 103.076Z" fill="#3D3D3D"/><path d="M264.304 116.494C254.452 108.608 233.14 109.503 223.715 116.494L247.089 150.892C256.933 140.964 273.41 123.782 264.304 116.494Z" fill="#DA8E74"/><path d="M209.889 139.695H243.189V145.971C243.189 153.798 236.844 160.142 229.018 160.142C223.698 160.142 218.825 157.163 216.401 152.427L209.889 139.695Z" fill="#B82C2C"/><path d="M242.864 149.007C241.475 155.376 235.803 160.144 229.018 160.144C225.552 160.144 222.276 158.88 219.743 156.689C223.809 151.558 230.097 148.265 237.152 148.265C239.127 148.265 241.041 148.524 242.864 149.007Z" fill="#EF4949"/><path d="M191.467 137.519C187.319 129.057 191.235 119.422 200.128 116.21L218.705 109.502C223.912 107.621 229.705 108.426 234.282 111.269C235.888 111.482 237.471 111.922 238.975 112.596L259.792 121.928C270.141 126.567 272.996 138.956 265.677 147.473C259.508 154.653 248.437 156.201 240.579 150.984L234.607 147.018C227.468 142.678 225.627 142.354 218.204 144.922L214.551 146.387C205.92 149.843 195.556 145.863 191.467 137.519Z" fill="#3D3D3D"/><path d="M235.18 114.858C233.733 119.336 228.933 121.793 224.456 120.348C219.977 118.902 217.519 114.101 218.966 109.624C220.411 105.146 225.213 102.689 229.691 104.134C234.168 105.58 236.625 110.381 235.18 114.858Z" fill="#DA8E74"/><path d="M307.668 110.701C308.574 94.5507 303.423 78.8394 293.694 66.4561L285.494 91.8569C282.822 100.132 287.363 109.006 295.639 111.678C299.783 113.016 304.077 112.545 307.668 110.701Z" fill="#3D3D3D"/><path d="M184.394 75.7598C190.041 65.3191 198.294 56.8591 208.045 50.9463L203.099 66.2654C200.59 74.0348 192.26 78.2998 184.489 75.7912C184.456 75.7808 184.425 75.7703 184.394 75.7598Z" fill="#3D3D3D"/><path fill-rule="evenodd" clip-rule="evenodd" d="M235.959 74.7481C229.441 71.2015 224.644 70.4268 216.835 71.3191C213.537 71.6961 210.555 69.3269 210.179 66.0273C209.801 62.7277 212.171 59.7472 215.47 59.3702C225.419 58.2331 232.751 59.3116 241.707 64.1833C244.624 65.7704 245.701 69.422 244.114 72.3393C242.527 75.2567 238.876 76.3352 235.959 74.7481Z" fill="#3D3D3D"/><path fill-rule="evenodd" clip-rule="evenodd" d="M254.871 72.0495C261.944 74.2981 265.823 77.2217 270.586 83.4746C272.598 86.1164 276.372 86.6268 279.013 84.6144C281.655 82.6019 282.166 78.8289 280.154 76.1869C274.084 68.2201 268.23 63.6769 258.515 60.588C255.35 59.5818 251.969 61.3317 250.963 64.4968C249.956 67.6616 251.707 71.0433 254.871 72.0495Z" fill="#3D3D3D"/><path d="M217.497 176.626C215.104 178.174 211.979 177.165 210.945 174.509L203.603 155.676C203.046 154.243 201.716 153.242 200.224 152.872C194.569 151.464 180.172 145.916 167.347 124.625L150.591 179.812L202.692 223.238L274.347 220.804L293.443 161.82C273.323 168.801 244.946 165.456 238.103 164.499C237.117 164.361 236.112 164.573 235.277 165.115L217.497 176.626Z" fill="#FFA0DA"/><path d="M307.131 104.648C307.622 112.606 306.66 120.786 304.062 128.832L299.33 143.485C295.928 137.93 294.789 131.015 296.748 124.266L298.909 116.827C300.364 111.813 303.314 107.64 307.131 104.648Z" fill="#3D3D3D"/><path d="M312.477 116.161C310.691 121.692 304.76 124.728 299.229 122.942C293.699 121.156 290.663 115.225 292.448 109.694C294.234 104.163 300.164 101.128 305.696 102.913C311.227 104.699 314.263 110.63 312.477 116.161Z" fill="#DA8E74"/><path d="M272.036 228.023L274.76 219.588L234.426 225.575L182.333 213.306L150.523 177.065L147.094 187.683C139.83 210.181 145.357 233.742 159.648 250.501H259.494C264.965 244.1 269.288 236.535 272.036 228.023Z" fill="#2BE69C"/><path d="M146.266 190.455C146.521 189.53 146.798 188.607 147.096 187.684L148.862 182.21L149.228 180.971C155.921 176.985 156.309 177.771 156.307 177.768L156.305 177.764L156.299 177.754L156.291 177.742C156.299 177.754 156.317 177.783 156.348 177.834C156.412 177.933 156.525 178.108 156.692 178.354C157.025 178.844 157.567 179.612 158.336 180.599C159.872 182.572 162.303 185.411 165.748 188.655C172.628 195.136 183.564 203.241 199.546 209.282C221.957 217.753 241.497 219.529 255.349 219.214C262.275 219.056 267.775 218.376 271.487 217.751C273.313 217.444 274.704 217.151 275.615 216.941L272.038 228.024C271.407 229.979 270.692 231.883 269.899 233.735C266.03 234.236 261.253 234.662 255.701 234.789C240.184 235.141 218.609 233.143 194.039 223.856C175.895 216.998 163.243 207.697 155.066 199.997C151.135 196.293 148.241 192.963 146.266 190.455Z" fill="#A56644"/><path d="M156.289 177.74C156.289 177.738 156.289 177.74 156.29 177.741L156.289 177.74Z" fill="#A56644"/><path d="M234.972 233.836C231.928 233.491 228.769 233.047 225.507 232.484L229.108 217.293C232.399 217.84 235.568 218.253 238.594 218.555L234.972 233.836Z" fill="#2BE69C"/><path d="M64.3023 92.6567C70.8975 68.2718 94.3208 52.8154 119.493 54.9277C145.948 57.1476 166.925 78.1238 169.34 104.561C170.73 119.797 172.263 135.948 173.558 148.051C175.272 164.066 177.883 174.942 179.451 180.459C180.012 182.43 178.399 184.452 176.362 184.249L56.6926 172.347C55.8819 172.267 55.1592 171.831 54.848 171.077C53.5014 167.819 50.5684 156.956 55.4143 130.542C57.5831 118.72 60.9184 105.169 64.3023 92.6567Z" fill="#A570FF"/><path fill-rule="evenodd" clip-rule="evenodd" d="M100.717 151.692C100.718 151.69 100.718 151.686 113.053 154.533C125.385 157.38 125.387 157.378 125.387 157.374V157.372L125.389 157.368C125.387 157.376 125.383 157.393 125.378 157.421C125.364 157.475 125.344 157.569 125.315 157.705C125.257 157.974 125.165 158.4 125.05 158.979C124.819 160.131 124.488 161.88 124.108 164.155C123.35 168.708 122.408 175.342 121.713 183.504C120.316 199.874 119.935 222.117 123.872 245.857L98.8971 249.999C94.519 223.6 94.9707 199.145 96.4878 181.354C97.2484 172.433 98.2825 165.121 99.1362 159.995C99.5633 157.43 99.9461 155.409 100.228 154.001C100.369 153.298 100.486 152.747 100.569 152.358C100.612 152.165 100.645 152.011 100.671 151.898C100.683 151.841 100.693 151.797 100.701 151.76L100.712 151.715L100.717 151.692ZM125.389 157.366V157.368C125.389 157.366 125.389 157.364 125.389 157.366Z" fill="#593F86"/><path d="M121.203 221.997C121.671 229.652 122.514 237.666 123.873 245.856L98.8984 249.998C97.3038 240.386 96.35 231.029 95.855 222.159L121.203 221.997Z" fill="#A570FF"/><path d="M80.2054 99.7032C86.2817 77.9054 107.633 64.0383 130.018 67.351C152.481 70.6752 168.923 90.25 168.319 112.949L167.371 148.637C167.024 161.645 155.383 171.425 142.508 169.521L88.3075 161.499C75.3941 159.589 67.0805 146.789 70.5858 134.214L80.2054 99.7032Z" fill="#FFC6B7"/><path d="M150.507 110.693C151.327 105.145 156.489 101.313 162.037 102.134L165.691 102.675C171.239 103.496 175.071 108.659 174.249 114.207C173.43 119.755 168.265 123.587 162.717 122.766L159.066 122.225C153.518 121.404 149.685 116.241 150.507 110.693Z" fill="#FFC6B7"/><path d="M113.84 57.7444C113.48 59.0435 113.195 60.3792 112.993 61.7472C110.342 79.652 122.71 96.3146 140.614 98.9642L169.093 103.179C166.147 80.2466 148.285 61.6559 124.932 58.1999C121.195 57.647 117.482 57.5055 113.84 57.7444Z" fill="#A570FF"/><path d="M133.172 115.016C134.214 107.439 141.179 102.273 148.731 103.476L160.172 105.298C160.928 105.418 161.456 106.13 161.352 106.888L159.101 123.251C158.061 130.828 151.094 135.994 143.542 134.791L137.571 133.84C133.793 133.239 131.154 129.68 131.676 125.892L133.172 115.016Z" fill="white"/><path d="M128.15 114.215C129.191 106.638 123.912 99.5212 116.36 98.3183L104.919 96.4959C104.164 96.3756 103.467 96.8922 103.363 97.6499L101.113 114.013C100.071 121.59 105.35 128.707 112.902 129.91L118.872 130.861C122.648 131.462 126.132 128.879 126.654 125.091L128.15 114.215Z" fill="white"/><path d="M147.872 113.795C148.299 110.923 150.971 108.939 153.843 109.364C156.715 109.789 158.7 112.462 158.275 115.335L158.02 117.061C157.594 119.934 154.922 121.918 152.049 121.492C149.177 121.067 147.193 118.394 147.617 115.522L147.872 113.795Z" fill="#3D3D3D"/><path d="M117.647 109.575C118.072 106.702 120.746 104.718 123.618 105.143C126.49 105.568 128.473 108.242 128.048 111.114L127.793 112.841C127.369 115.713 124.695 117.697 121.822 117.272C118.95 116.847 116.966 114.173 117.39 111.301L117.647 109.575Z" fill="#3D3D3D"/><path d="M160.384 113.944L134.802 110.158C137.497 105.375 142.944 102.552 148.735 103.475L160.176 105.297C160.93 105.417 161.457 106.129 161.354 106.887L160.384 113.944Z" fill="#A570FF"/><path d="M127.918 109.139L102.305 105.348L103.363 97.6489C103.467 96.8914 104.164 96.3747 104.92 96.4949L116.36 98.3172C122.181 99.2444 126.65 103.684 127.918 109.139Z" fill="#A570FF"/><path d="M156.48 126.547C146.554 123.397 133.154 128.845 127.695 131.962L157.796 143.828C161.494 139.38 166.407 129.696 156.48 126.547Z" fill="#FFC6B7"/><path fill-rule="evenodd" clip-rule="evenodd" d="M146.397 135.307C147.25 135.865 147.489 137.009 146.931 137.863C144.418 141.701 139.899 145.339 133.681 144.704C132.666 144.6 131.928 143.693 132.031 142.679C132.134 141.665 133.042 140.926 134.054 141.03C138.44 141.478 141.791 138.973 143.842 135.84C144.399 134.987 145.544 134.748 146.397 135.307Z" fill="#EE9583"/><path d="M108.596 124.811C118.978 123.991 130.796 132.33 135.408 136.603L103.401 141.346C100.807 136.176 98.2134 125.632 108.596 124.811Z" fill="#FFC6B7"/><path d="M138.28 130.558C138.666 133.502 136.621 136.197 133.714 136.578C130.808 136.959 128.138 134.88 127.753 131.937C127.367 128.993 131.517 121.503 131.737 121.475C131.955 121.446 137.895 127.614 138.28 130.558Z" fill="#EE9583"/><path d="M72.6747 106.503C73.8774 99.3867 76.7323 92.6513 81.0101 86.838L92.5057 71.2157L100.814 64.7535L116.913 62.9072C116.913 62.9072 109.513 106.697 111.071 129.861C112.089 145.009 113.961 161.581 114.677 167.665C114.821 168.905 113.782 169.955 112.539 169.829L62.8198 164.816L72.6747 106.503Z" fill="#A570FF"/><path d="M59.8092 206.49C70.5305 217.922 72.0148 210.385 100.423 177.767L101.323 200.551C72.5017 246.509 70.6742 252.449 44.8488 252.449C24.6935 252.449 22.5511 166.764 59.8092 206.49Z" fill="#593F86"/><path d="M187.104 204.835C187.104 195.747 194.471 188.38 203.56 188.38C212.648 188.38 220.015 195.747 220.015 204.835C220.015 213.924 212.648 221.291 203.56 221.291C194.471 221.291 187.104 213.924 187.104 204.835Z" fill="#FFC6B7"/><path fill-rule="evenodd" clip-rule="evenodd" d="M192.735 175.445C195.582 174.643 198.54 176.302 199.341 179.149C201.235 185.881 201.703 191.392 201.933 200.79C202.007 203.746 199.668 206.202 196.712 206.274C193.754 206.348 191.298 204.009 191.226 201.053C191.002 191.932 190.56 187.484 189.031 182.051C188.229 179.204 189.888 176.246 192.735 175.445Z" fill="#FFC6B7"/><path d="M25.5096 175.062L17.1353 185.066L45.0907 208.466L53.465 198.46L25.5096 175.062Z" fill="#A7E2FF"/><path d="M33.4578 185.322C33.1217 185.041 32.6213 185.084 32.3401 185.421L28.537 189.964C28.2558 190.301 28.3002 190.802 28.6363 191.082L57.1978 214.988C57.5339 215.268 58.0344 215.224 58.3156 214.889L62.1186 210.345C62.3998 210.009 62.3554 209.508 62.0193 209.228L33.4578 185.322Z" fill="#0B6189"/><path d="M13.8519 168.912C12.2613 167.582 9.89229 167.792 8.56087 169.383C7.22944 170.972 7.43976 173.342 9.03038 174.674L17.2476 181.55C18.8384 182.882 21.2072 182.672 22.5386 181.081C23.87 179.49 23.6599 177.122 22.0691 175.79L13.8519 168.912Z" fill="#1487BD"/><path fill-rule="evenodd" clip-rule="evenodd" d="M65.4071 209.797C65.1019 209.384 64.4899 209.364 64.1598 209.758L58.1007 216.998C57.7695 217.394 57.8982 217.995 58.3623 218.221L71.5832 224.648C71.911 224.807 72.3049 224.722 72.5388 224.443L74.0879 222.591C74.3228 222.311 74.3353 221.906 74.1181 221.612L65.4071 209.797Z" fill="#A7E2FF"/><path fill-rule="evenodd" clip-rule="evenodd" d="M60.9558 207.053C60.644 206.657 60.0472 206.65 59.7239 207.035L58.0439 209.043C57.7726 209.366 57.803 209.847 58.113 210.133L70.1973 221.335C70.9151 221.999 71.9657 221.029 71.3601 220.262L60.9558 207.053Z" fill="#D7F2FF"/><path d="M20.5485 169.878C20.0445 169.455 19.2937 169.521 18.8717 170.026L11.0104 179.418C10.5886 179.922 10.6552 180.674 11.1592 181.095L19.9689 188.469C20.4731 188.89 21.2236 188.824 21.6456 188.32L29.507 178.927C29.929 178.423 29.8622 177.673 29.3582 177.251L20.5485 169.878Z" fill="#1899D6"/><path d="M48.5025 193.276C47.9986 192.855 47.2478 192.921 46.8258 193.426L38.9645 202.818C38.5427 203.322 38.6093 204.072 39.1134 204.495L56.1273 218.736C56.6315 219.156 57.3822 219.09 57.804 218.586L65.6654 209.194C66.0874 208.689 66.0208 207.939 65.5166 207.517L48.5025 193.276Z" fill="#1899D6"/><path fill-rule="evenodd" clip-rule="evenodd" d="M11.2357 182.996C10.2951 182.054 8.74869 182.122 7.89418 183.142C7.09088 184.102 7.21765 185.532 8.17732 186.334L20.6908 196.809C21.3673 197.374 22.3805 197.257 22.9079 196.548C23.3636 195.939 23.3022 195.086 22.7638 194.546L11.2357 182.996Z" fill="#1899D6"/><path d="M14.3032 178.574C13.4641 177.871 12.2147 177.982 11.5123 178.821L7.71156 183.362C7.00914 184.202 7.12015 185.45 7.95908 186.153C8.7982 186.856 10.0478 186.745 10.7501 185.906L14.551 181.364C15.2532 180.525 15.1424 179.275 14.3032 178.574Z" fill="#1899D6"/><path d="M19.6827 172.764C19.3468 172.481 18.8463 172.526 18.5649 172.863L17.046 174.678C16.7646 175.013 16.809 175.514 17.1451 175.796L24.1325 181.644C24.4684 181.924 24.9689 181.88 25.2503 181.545L26.7692 179.73C27.0506 179.393 27.006 178.892 26.6701 178.612L19.6827 172.764Z" fill="#1CB0F6"/><path d="M47.9425 196.414C47.6064 196.133 47.1059 196.178 46.8247 196.513L45.3057 198.328C45.0243 198.665 45.0687 199.165 45.4049 199.446L59.9888 211.652C60.3247 211.934 60.8252 211.89 61.1066 211.553L62.6255 209.738C62.9067 209.403 62.8623 208.902 62.5264 208.62L47.9425 196.414Z" fill="#1CB0F6"/><path d="M24.6699 207.665C23.2463 198.689 29.3689 190.259 38.3448 188.835C47.3207 187.412 55.7509 193.534 57.1744 202.51C58.5979 211.485 52.4754 219.916 43.4995 221.339C34.5236 222.763 26.0934 216.64 24.6699 207.665Z" fill="#FFC6B7"/><path fill-rule="evenodd" clip-rule="evenodd" d="M38.3798 194.646C37.9167 191.725 39.9091 188.981 42.8304 188.518C47.4538 187.786 51.1599 187.604 55.034 189.267C56.8096 190.029 58.409 191.086 59.9706 192.231C61.0306 193.008 62.238 193.953 63.5665 194.993C64.1503 195.448 64.7575 195.924 65.3859 196.412C67.7234 198.223 68.1488 201.589 66.3366 203.925C64.5242 206.262 61.1603 206.689 58.8228 204.876C58.076 204.297 57.4079 203.774 56.7985 203.296C55.5561 202.325 54.5581 201.544 53.6354 200.866C52.2964 199.885 51.4688 199.392 50.8113 199.11C49.8197 198.685 48.6357 198.442 44.5079 199.096C41.5868 199.559 38.8431 197.567 38.3798 194.646Z" fill="#FFC6B7"/><path d="M148.758 203.118L122.256 179.485C120.748 178.143 118.363 179.212 118.363 181.23V194.184C118.363 194.653 118.505 195.113 118.768 195.5L140.853 227.887C141.852 229.354 143.322 230.434 145.019 230.95L185.368 243.236C186.418 243.556 187.536 243.104 187.982 242.101C189.612 238.45 193.086 229.017 192.866 215.401C192.739 207.652 191.409 195.553 190.753 189.993C190.574 188.482 189.016 187.557 187.6 188.112L149.161 203.191C149.022 203.245 148.869 203.216 148.758 203.118Z" fill="#593F86"/><path d="M0.935059 252.838C0.935059 251.547 1.98119 250.501 3.27191 250.501H290.121C291.412 250.501 292.458 251.547 292.458 252.838V261.406C292.458 262.697 291.412 263.743 290.121 263.743H3.27191C1.98119 263.743 0.935059 262.697 0.935059 261.406V252.838Z" fill="#CD7900"/><path d="M49.23 228.41L52.9175 230.031C60.4317 233.333 69.0635 232.893 76.2039 228.847C87.5663 222.407 101.942 225.392 109.801 235.824L111.741 238.398L113.68 235.824C121.54 225.392 135.916 222.407 147.279 228.847C154.418 232.893 163.05 233.333 170.563 230.031L174.252 228.41V247.97H49.23V228.41Z" fill="#A7E2FF"/><path d="M43.7778 247.484C43.7778 245.817 45.1291 244.466 46.7963 244.466H176.492C178.159 244.466 179.51 245.817 179.51 247.484C179.51 249.151 178.159 250.503 176.492 250.503H46.7961C45.1291 250.503 43.7778 249.151 43.7778 247.484Z" fill="#42AFFF"/><path d="M230.921 207.367C230.921 197.527 238.899 189.549 248.739 189.549C258.58 189.549 266.558 197.527 266.558 207.367C266.558 217.207 258.58 225.186 248.739 225.186C238.899 225.186 230.921 217.207 230.921 207.367Z" fill="#DA8E74"/><path fill-rule="evenodd" clip-rule="evenodd" d="M263.082 177.65C259.2 176.557 255.167 178.818 254.075 182.701C252.114 189.671 251.641 195.375 251.409 204.822C251.31 208.855 254.5 212.204 258.531 212.302C262.564 212.401 265.911 209.213 266.01 205.18C266.232 196.111 266.671 191.856 268.133 186.659C269.226 182.775 266.965 178.742 263.082 177.65Z" fill="#DA8E74"/><path d="M211.084 94.1227C211.026 94.2625 210.973 94.4057 210.927 94.5519L209.772 98.1273C208.794 101.156 210.457 104.404 213.485 105.382C216.516 106.36 219.764 104.697 220.741 101.668L221.894 98.093C222.874 95.0642 221.211 91.8162 218.183 90.8384C217.885 90.7426 217.587 90.6723 217.289 90.626C217.287 92.8826 215.456 94.7114 213.199 94.7114C212.426 94.7114 211.702 94.4964 211.084 94.1227Z" fill="#3D3D3D"/><path d="M103.965 241.934H119.517L119.689 242.389C120.46 244.428 118.953 246.607 116.775 246.607H106.707C104.53 246.607 103.023 244.428 103.794 242.389L103.965 241.934Z" fill="#A7E2FF"/></svg>