<svg width="317" height="361" viewBox="0 0 317 361" fill="none" xmlns="http://www.w3.org/2000/svg"><path d="M168.068 70.6937C173.858 69.3484 179.641 72.9534 180.987 78.7455L191.973 126.066C193.317 131.858 189.714 137.644 183.924 138.989C178.134 140.335 172.35 136.73 171.005 130.937L160.019 83.6172C158.675 77.825 162.278 72.039 168.068 70.6937Z" fill="#FFC6B7"/><path d="M159.871 116.146C159.735 114.386 161.438 113.057 163.112 113.617L202.073 126.651C203.156 127.014 203.849 128.072 203.748 129.21L195.067 226.97L168.511 228.389L159.871 116.146Z" fill="#593F86"/><path d="M110.055 173.772C120.097 149.04 146.611 135.268 172.609 141.281C198.608 147.294 216.389 171.308 214.562 197.941L208.812 281.748C208.691 283.516 207.017 284.757 205.291 284.357L80.4722 255.491C78.7458 255.091 77.786 253.242 78.4528 251.6L110.055 173.772Z" fill="#A570FF"/><path d="M121.157 180.206C129.271 158.112 152.556 145.514 175.481 150.816C198.485 156.136 213.895 177.804 211.377 201.289L207.418 238.211C205.975 251.67 193.093 260.839 179.909 257.79L124.403 244.953C111.178 241.895 103.628 227.93 108.31 215.185L121.157 180.206Z" fill="#FFC6B7"/><path d="M192.607 203.761C193.616 198.014 199.09 194.175 204.834 195.184L208.615 195.849C214.359 196.86 218.197 202.335 217.188 208.081C216.178 213.826 210.704 217.667 204.961 216.656L201.179 215.993C195.436 214.982 191.599 209.506 192.607 203.761Z" fill="#FFC6B7"/><path d="M171.512 141.038C169.446 144.252 167.889 147.869 166.979 151.805C162.74 170.149 174.168 188.456 192.504 192.696L214.575 197.801C216.331 171.224 198.565 147.283 172.612 141.281C172.246 141.196 171.878 141.116 171.512 141.038Z" fill="#A570FF"/><path d="M177.857 207.05C179.648 199.299 187.381 194.47 195.128 196.261L206.818 198.965C207.593 199.144 208.076 199.917 207.898 200.692L204.546 215.194C202.755 222.945 195.022 227.775 187.275 225.983L181.195 224.577C177.322 223.681 174.907 219.814 175.803 215.939L177.857 207.05Z" fill="white"/><path d="M172.712 205.861C174.503 198.11 169.674 190.375 161.926 188.582L150.237 185.879C149.461 185.7 148.688 186.183 148.509 186.957L145.159 201.459C143.367 209.21 148.196 216.945 155.943 218.738L162.022 220.143C165.896 221.04 169.762 218.624 170.658 214.748L172.712 205.861Z" fill="white"/><path fill-rule="evenodd" clip-rule="evenodd" d="M188.387 214.77C190.941 215.72 192.241 218.561 191.291 221.114C190.249 223.918 187.108 226.2 182.873 225.849C180.158 225.626 178.139 223.241 178.364 220.526C178.571 218.012 180.628 216.093 183.086 216.001C184.405 214.608 186.476 214.059 188.387 214.77Z" fill="#3D3D3D"/><path fill-rule="evenodd" clip-rule="evenodd" d="M167.264 210.644C169.821 211.581 171.136 214.415 170.2 216.975C169.389 219.191 166.762 221.775 162.741 221.155C160.048 220.739 158.202 218.218 158.618 215.525C158.939 213.448 160.511 211.874 162.448 211.454C163.754 210.391 165.569 210.023 167.264 210.644Z" fill="#3D3D3D"/><path d="M205.785 209.836L177.411 208.984L177.857 207.051C179.649 199.3 187.381 194.469 195.129 196.261L206.82 198.964C207.594 199.143 208.076 199.917 207.897 200.693L205.785 209.836Z" fill="#A570FF"/><path d="M172.215 207.997L147.214 192.554L148.506 186.957C148.686 186.183 149.459 185.7 150.234 185.879L161.924 188.582C169.671 190.375 174.5 198.11 172.71 205.861L172.215 207.997Z" fill="#A570FF"/><path d="M173.992 209.231C176.52 210.716 180.002 202.747 180.752 200.148L176.423 189.557C173.134 188.46 161.208 184.841 156.043 184.382C162.391 187.575 168.94 206.263 173.992 209.231Z" fill="#FFC6B7"/><path d="M151.673 342.138C151.673 337.727 155.247 334.152 159.656 334.152H181.566C185.973 334.152 189.548 337.727 189.548 342.138C189.548 346.548 185.973 350.123 181.566 350.123H159.656C155.247 350.123 151.673 346.548 151.673 342.138Z" fill="#593F86"/><path fill-rule="evenodd" clip-rule="evenodd" d="M118.319 323.554C114.192 283.717 131.214 250.003 140.883 237.298L161.488 252.991C154.742 261.855 140.793 289.165 144.078 320.883L118.319 323.554Z" fill="#593F86"/><path d="M187.42 279.789L241.548 271.166L187.42 315.425L133.293 324.047L187.42 279.789Z" fill="#8EC3EA"/><path d="M189.951 284.217L222.612 279.22C232.892 277.647 239.494 289.813 232.576 297.58L214.487 317.894L135.823 328.475L189.951 284.217Z" fill="#77B0D9"/><path d="M149.023 324.392C142.162 326.854 138.594 334.413 141.054 341.278C143.515 348.142 151.072 351.711 157.933 349.249L205.912 332.039C212.774 329.578 216.341 322.018 213.881 315.154C211.421 308.29 203.864 304.721 197.003 307.182L149.023 324.392Z" fill="#A570FF"/><path d="M100.185 332.04C93.3236 329.579 89.7558 322.019 92.2161 315.154C94.6766 308.29 102.233 304.721 109.095 307.182L157.074 324.392C163.935 326.854 167.503 334.413 165.043 341.278C162.583 348.142 155.026 351.712 148.164 349.251L100.185 332.04Z" fill="#A570FF"/><path d="M117.332 342.138C117.332 337.727 120.905 334.152 125.314 334.152H147.224C151.632 334.152 155.206 337.727 155.206 342.138C155.206 346.548 151.632 350.123 147.224 350.123H125.314C120.905 350.123 117.332 346.548 117.332 342.138Z" fill="#593F86"/><path d="M168.348 220.221C162.581 210.435 153.181 210.788 142.307 212.637L145.409 226.778C155.569 227.453 172.212 226.78 168.348 220.221Z" fill="#FFC6B7"/><path fill-rule="evenodd" clip-rule="evenodd" d="M160.55 221.866C157.573 220.264 154.58 220.721 152.692 221.684C151.782 222.149 151.42 223.263 151.885 224.174C152.348 225.084 153.462 225.446 154.372 224.982C155.362 224.476 157.058 224.19 158.797 225.125C160.532 226.06 162.681 228.416 164.098 233.964C164.351 234.955 165.358 235.552 166.349 235.299C167.339 235.046 167.936 234.038 167.683 233.048C166.121 226.934 163.528 223.47 160.55 221.866Z" fill="#EE9583"/><path d="M113.883 187.572C116.032 178.272 120.902 169.825 127.872 163.309L141.687 150.392L151.617 145.79L174.962 149.217L147.504 268.037C147.146 269.586 145.6 270.552 144.05 270.195L97.2891 259.38L113.883 187.572Z" fill="#A570FF"/><path d="M201.078 324.369C211.408 290.345 192.38 280.266 187.176 279.735C193.32 278.515 215.371 275.397 238.011 271.663C260.79 267.907 260.136 296.092 255.803 315.018C241.314 317.177 228.208 320.668 201.078 324.369Z" fill="#B8E1FF"/><path d="M127.329 246.478C125.706 244.506 125.988 241.591 127.96 239.968C129.932 238.344 132.847 238.629 134.469 240.603L174.192 288.947C174.99 289.918 174.3 291.38 173.044 291.38C167.489 291.38 162.226 288.893 158.695 284.602L127.329 246.478Z" fill="black"/><path d="M10.6226 217.772C36.9892 197.029 42.9308 176.044 41.7168 171.506C46.9606 174.934 46.6574 173.677 65.4468 186.853C84.3516 200.109 63.1229 235.089 46.7927 245.581C44.9506 243.238 36.531 237.509 10.6226 217.772Z" fill="#B8E1FF"/><path d="M225.743 133.265C266.069 119.556 262.916 90.5676 261.71 85.1572C267.722 89.4586 271.119 91.0978 292.617 107.564C314.249 124.131 299.85 164.207 266.46 167.892C264.405 165.037 255.31 157.821 225.743 133.265Z" fill="#B8E1FF"/><path d="M141.926 32.8288C117.409 72.5073 125.775 82.3387 128.892 87.4105C121.283 85.1468 110.886 84.2192 83.2963 75.0229C55.5367 65.7701 73.4582 30.1252 89.4944 11.4658C92.5801 13.6449 103.314 18.2408 141.926 32.8288Z" fill="#B8E1FF"/><path d="M177.27 208.103C174.344 207.947 175.832 199.378 176.639 196.796L184.685 191.969C188.033 192.868 201.381 194.811 205.943 197.278C198.887 196.438 183.12 208.415 177.27 208.103Z" fill="#FFC6B7"/><path d="M152.13 96.9481C153.413 93.3245 157.39 91.4281 161.013 92.7123L172.979 96.9546C176.601 98.2387 178.496 102.217 177.212 105.841C175.929 109.464 171.952 111.361 168.33 110.077L156.364 105.834C152.742 104.55 150.846 100.572 152.13 96.9481Z" fill="#FFC6B7"/><path d="M173.137 226.514C182.509 220.099 189.168 219.575 199.034 224.51L193.176 239.468C183.259 237.155 163.765 232.93 173.137 226.514Z" fill="#FFC6B7"/><path d="M180.466 225.371C181.367 228.324 179.735 231.441 176.82 232.331C173.905 233.222 170.81 231.549 169.908 228.596C169.007 225.643 171.974 217.245 172.193 217.178C172.414 217.111 179.564 222.416 180.466 225.371Z" fill="#EE9583"/><path d="M117.649 259.785C120.366 254.986 126.459 253.298 131.256 256.017C136.053 258.735 137.738 264.829 135.021 269.628L120.101 295.979C117.384 300.778 111.292 302.464 106.495 299.746C101.698 297.027 100.012 290.934 102.729 286.135L117.649 259.785Z" fill="#593F86"/><path d="M141.665 261.851C143.558 260.664 145.956 262.298 145.548 264.495L141.516 286.138C139.256 298.272 127.339 306.071 115.32 303.283L110.071 302.066C107.149 301.388 104.678 299.45 103.322 296.775C100.954 292.099 102.539 286.39 106.978 283.605L141.665 261.851Z" fill="#593F86"/><path d="M166.882 275.389C166.42 284.064 159.016 290.72 150.344 290.258C141.672 289.795 135.018 282.388 135.48 273.713C135.943 265.039 143.347 258.381 152.018 258.844C160.689 259.307 167.344 266.715 166.882 275.389Z" fill="#FFC6B7"/><path opacity="0.3" d="M80.9541 350.102H225.258C227.85 350.102 229.952 352.201 229.952 354.79V354.898C229.952 357.487 227.85 359.586 225.258 359.586H80.9541C78.362 359.586 76.2607 357.487 76.2607 354.898V354.79C76.2607 352.201 78.362 350.102 80.9541 350.102Z" fill="#AFAFAF"/></svg>