<svg width="164" height="349" viewBox="0 0 164 349" fill="none" xmlns="http://www.w3.org/2000/svg"><path d="M96.7634 276.135C97.4528 276.135 98.0116 276.694 98.0116 277.383V289.203C98.0116 289.892 97.4528 290.451 96.7634 290.451L54.6642 290.451C53.9748 290.451 53.416 289.892 53.416 289.203L53.416 277.383C53.416 276.694 53.9748 276.135 54.6642 276.135L96.7634 276.135Z" fill="#D7FFBD" stroke="#90DC48" stroke-width="1.56023"/><path d="M42.7031 297.457C42.7031 296.768 43.262 296.209 43.9513 296.209H107.475C108.165 296.209 108.723 296.768 108.723 297.457V344.955C108.723 345.645 108.165 346.204 107.475 346.204H43.9513C43.262 346.204 42.7031 345.645 42.7031 344.955V297.457Z" fill="#D7FFBD" stroke="#90DC48" stroke-width="1.56023"/><path d="M42.7031 297.457C42.7031 296.768 43.262 296.209 43.9513 296.209H107.475C108.165 296.209 108.723 296.768 108.723 297.457V340.165C108.723 340.854 108.165 341.413 107.475 341.413H43.9513C43.262 341.413 42.7031 340.854 42.7031 340.165V297.457Z" fill="#D7FFBD" stroke="#90DC48" stroke-width="1.56023"/><path d="M94.7639 323.049C94.7639 322.36 95.3227 321.801 96.0121 321.801H107.498C108.188 321.801 108.747 322.36 108.747 323.049V346.972C108.747 347.662 108.188 348.221 107.498 348.221H96.0121C95.3227 348.221 94.7639 347.662 94.7639 346.972V323.049Z" fill="white"/><path d="M42.6816 323.049C42.6816 322.36 43.2405 321.801 43.9298 321.801H55.4162C56.1055 321.801 56.6643 322.36 56.6643 323.049V346.972C56.6643 347.662 56.1055 348.221 55.4162 348.221H43.9298C43.2405 348.221 42.6816 347.662 42.6816 346.972V323.049Z" fill="white"/><path d="M94.7639 323.049C94.7639 322.36 95.3227 321.801 96.0121 321.801H107.498C108.188 321.801 108.747 322.36 108.747 323.049V346.972C108.747 347.662 108.188 348.221 107.498 348.221H96.0121C95.3227 348.221 94.7639 347.662 94.7639 346.972V323.049Z" stroke="#90DC48" stroke-width="1.56023"/><path d="M42.6816 323.049C42.6816 322.36 43.2405 321.801 43.9298 321.801H55.4162C56.1055 321.801 56.6643 322.36 56.6643 323.049V346.972C56.6643 347.662 56.1055 348.221 55.4162 348.221H43.9298C43.2405 348.221 42.6816 347.662 42.6816 346.972V323.049Z" stroke="#90DC48" stroke-width="1.56023"/><path d="M42.7051 273.32C42.7051 272.631 43.2639 272.072 43.9533 272.072H55.4396C56.1289 272.072 56.6878 272.631 56.6878 273.32V297.244C56.6878 297.933 56.1289 298.492 55.4396 298.492H43.9533C43.2639 298.492 42.7051 297.933 42.7051 297.244V273.32Z" fill="white"/><path d="M94.7427 273.32C94.7427 272.631 95.3015 272.072 95.9909 272.072H107.477C108.167 272.072 108.725 272.631 108.725 273.32V297.244C108.725 297.933 108.167 298.492 107.477 298.492H95.9909C95.3015 298.492 94.7427 297.933 94.7427 297.244V273.32Z" fill="white"/><path d="M42.7051 273.32C42.7051 272.631 43.2639 272.072 43.9533 272.072H55.4396C56.1289 272.072 56.6878 272.631 56.6878 273.32V297.244C56.6878 297.933 56.1289 298.492 55.4396 298.492H43.9533C43.2639 298.492 42.7051 297.933 42.7051 297.244V273.32Z" stroke="#90DC48" stroke-width="1.56023"/><path d="M94.7427 273.32C94.7427 272.631 95.3015 272.072 95.9909 272.072H107.477C108.167 272.072 108.725 272.631 108.725 273.32V297.244C108.725 297.933 108.167 298.492 107.477 298.492H95.9909C95.3015 298.492 94.7427 297.933 94.7427 297.244V273.32Z" stroke="#90DC48" stroke-width="1.56023"/><path d="M42.7031 297.457C42.7031 296.768 43.262 296.209 43.9513 296.209H107.475C108.165 296.209 108.723 296.768 108.723 297.457V332.082C108.723 332.772 108.165 333.33 107.475 333.33H43.9513C43.262 333.33 42.7031 332.772 42.7031 332.082V297.457Z" fill="white" stroke="#90DC48" stroke-width="1.56023"/><path d="M48.127 297.457C48.127 296.768 48.6858 296.209 49.3751 296.209H102.052C102.742 296.209 103.3 296.768 103.3 297.457V327.618C103.3 328.308 102.742 328.867 102.052 328.867H49.3751C48.6858 328.867 48.127 328.308 48.127 327.618V297.457Z" fill="#D7FFBD" stroke="#90DC48" stroke-width="1.56023"/><path d="M48.127 297.457C48.127 296.768 48.6858 296.209 49.3751 296.209H102.052C102.742 296.209 103.3 296.768 103.3 297.457V309.134C103.3 309.824 102.742 310.382 102.052 310.382H49.3751C48.6858 310.382 48.127 309.824 48.127 309.134V297.457Z" fill="#D7FFBD" stroke="#90DC48" stroke-width="1.56023"/><path d="M111.726 289.219C112.415 289.219 112.974 289.778 112.974 290.467V301.953C112.974 302.643 112.415 303.201 111.726 303.201L39.7013 303.201C39.012 303.201 38.4531 302.643 38.4531 301.953L38.4531 290.467C38.4531 289.778 39.012 289.219 39.7013 289.219L111.726 289.219Z" fill="white" stroke="#90DC48" stroke-width="1.56023"/><path d="M85.0725 286.725C85.7619 286.725 86.3207 287.283 86.3207 287.973V303.562C86.3207 304.251 85.7619 304.81 85.0725 304.81H66.3517C65.6623 304.81 65.1035 304.251 65.1035 303.562L65.1035 287.973C65.1035 287.283 65.6623 286.725 66.3517 286.725L85.0725 286.725Z" fill="white" stroke="#90DC48" stroke-width="1.56023"/><path d="M77.209 296.739C78.6517 296.252 79.6683 295.082 79.6683 293.716C79.6683 291.913 77.8979 290.451 75.714 290.451C73.5302 290.451 71.7598 291.913 71.7598 293.716C71.7598 295.082 72.7764 296.252 74.2191 296.739L72.5189 299.684C72.3988 299.892 72.5489 300.152 72.7891 300.152H78.639C78.8792 300.152 79.0294 299.892 78.9092 299.684L77.209 296.739Z" fill="#90DC48"/><path d="M83.8268 215.711C83.8268 232.479 65.3772 246.071 42.6185 246.071C19.8597 246.071 1.41016 232.479 1.41016 215.711C1.41016 198.944 19.8597 185.352 42.6185 185.352C65.3772 185.352 83.8268 198.944 83.8268 215.711Z" fill="white"/><path d="M7.59058 223.006V231.805C1.36538 224.644 1.53365 218.091 1.53365 215.798V209.854C1.93744 215.358 5.73985 220.915 7.59058 223.006Z" fill="#D7FFBD"/><path d="M28.3789 235.116V244.074C26.6099 243.61 21.7224 241.969 16.324 239.117C10.9256 236.265 8.3717 232.941 7.76953 231.636V223.102L13.6141 220.18C13.9152 220.94 15.6439 223.044 20.1496 225.382C24.6553 227.719 29.4379 229.154 31.266 229.579L28.3789 235.116Z" fill="#D7FFBD"/><path d="M57.0297 235.116V244.074C58.7986 243.61 63.6862 241.969 69.0846 239.117C74.4829 236.265 77.0369 232.941 77.639 231.636V223.102L71.7944 220.18C71.4933 220.94 69.7647 223.044 65.2589 225.382C60.7532 227.719 55.9706 229.154 54.1426 229.579L57.0297 235.116Z" fill="#D7FFBD"/><path d="M42.6185 246.071C65.3772 246.071 83.8268 232.479 83.8268 215.711C83.8268 215.652 83.8265 215.593 83.8261 215.533H83.8266V208.042H82.5007C77.8889 194.988 61.7811 185.352 42.6185 185.352C23.4558 185.352 7.34804 194.988 2.73621 208.042H1.41648V215.174C1.41227 215.353 1.41016 215.532 1.41016 215.711C1.41016 232.479 19.8597 246.071 42.6185 246.071Z" stroke="#90DC48" stroke-width="1.56023"/><path d="M83.8268 207.436C83.8268 223.668 65.3772 236.826 42.6185 236.826C19.8597 236.826 1.41016 223.668 1.41016 207.436C1.41016 191.205 19.8597 178.047 42.6185 178.047C65.3772 178.047 83.8268 191.205 83.8268 207.436Z" fill="white"/><path d="M13.2279 220.244L7.80203 223.006C6.5682 221.368 3.97427 218.372 2.71252 214.581C1.75497 211.704 1.40859 207.732 1.45065 206.062H7.80203C7.80203 206.796 7.95344 209.049 8.55911 212.194C9.16477 215.339 11.924 218.871 13.2279 220.244Z" fill="#D7FFBD"/><path d="M31.266 229.579L28.3789 235.116C26.6099 234.652 22.0682 233.173 16.6823 229.923C11.4292 226.753 8.3717 224.407 7.76953 223.102L13.6141 220.18C13.9152 220.94 15.6439 223.044 20.1496 225.382C24.6553 227.719 29.4379 229.154 31.266 229.579Z" fill="#D7FFBD"/><path d="M54.1461 229.579L57.0332 235.116C58.8022 234.652 63.3439 233.173 68.7298 229.923C73.9829 226.753 77.0404 224.407 77.6426 223.102L71.798 220.18C71.4969 220.94 69.7682 223.044 65.2625 225.382C60.7568 227.719 55.9742 229.154 54.1461 229.579Z" fill="#D7FFBD"/><path d="M31.0469 229.661L35.5548 220.436C37.0575 220.436 36.936 221.109 39.0604 222.724C41.1848 224.338 44.3116 224.068 45.4515 223.03C46.3634 222.2 48.8022 220.954 49.9076 220.436L54.1046 229.661C52.3428 230.026 47.607 230.814 42.7571 231.044C37.9072 231.275 32.9295 230.218 31.0469 229.661Z" fill="#D7FFBD"/><path d="M69.9137 184.752L65.1328 188.617C66.6094 189.696 70.1106 191.901 72.913 195.175C75.4658 198.157 77.1582 203.408 77.4812 205.907H83.7566C83.2491 203.408 82.9105 198.588 79.8172 194.433C77.3609 191.135 72.2055 186.361 69.9137 184.752Z" fill="#D7FFBD"/><path d="M20.6046 188.644L15.3809 184.728C25.806 178.414 37.8699 177.284 42.5986 177.508V183.015C31.9975 182.77 23.5188 186.666 20.6046 188.644Z" fill="#D7FFBD"/><path d="M42.5332 194.251V183.187C52.3796 182.5 61.4054 186.66 64.6876 188.827L60.9228 191.888C60.3918 191.512 59.1466 190.706 58.4129 190.492C57.6793 190.277 52.3152 190.402 49.7249 190.492C45.825 190.706 43.3055 193.087 42.5332 194.251Z" fill="#D7FFBD"/><path d="M42.6764 177.517L42.6764 206.108M42.6764 206.108L69.6567 184.906M42.6764 206.108L77.4755 222.994V232.164M42.6764 206.108L56.7095 234.771M1.49015 206.108H83.833M15.5804 184.906L42.5607 206.108M42.5607 206.108L7.76173 222.994V232.164M42.5607 206.108L28.5277 234.771M56.7698 234.771V243.941M28.4673 234.771V243.941M77.4754 207.121C77.4754 220.35 61.8694 231.075 42.6185 231.075C23.3676 231.075 7.76168 220.35 7.76168 207.121C7.76168 193.892 23.3676 183.168 42.6185 183.168C61.8694 183.168 77.4754 193.892 77.4754 207.121ZM83.8268 207.121C83.8268 223.527 65.3772 236.827 42.6185 236.827C19.8597 236.827 1.41016 223.527 1.41016 207.121C1.41016 190.716 19.8597 177.416 42.6185 177.416C65.3772 177.416 83.8268 190.716 83.8268 207.121Z" stroke="#90DC48" stroke-width="1.56023"/><path d="M22.2781 194.473C19.8571 194.473 17.8945 196.165 17.8945 198.252V216.258C17.8945 218.346 19.8558 220.038 22.2768 220.038H31.513C35.9871 220.038 37.0872 221.055 38.1513 222.038C39 222.823 39.8257 223.586 42.3221 223.795C42.4445 223.806 42.5636 223.801 42.6776 223.783C42.7533 223.787 42.831 223.784 42.91 223.775C44.7945 223.558 45.6162 222.906 46.487 222.216C47.7276 221.233 49.068 220.171 53.7225 220.171H62.9587C65.3797 220.171 67.3409 218.478 67.3409 216.391V198.252C67.3409 196.165 65.3783 194.473 62.9573 194.473H53.138C48.5113 194.473 44.5124 196.79 42.6177 200.152C40.723 196.79 36.7241 194.473 32.0974 194.473H22.2781Z" fill="#D7FFBD" stroke="#90DC48" stroke-width="1.56023"/><path d="M27.421 190.441C25.4842 190.441 23.9141 191.795 23.9141 193.465V211.606C23.9141 213.276 25.4828 214.63 27.4196 214.63H33.8502C37.7114 214.63 38.9156 215.546 39.9981 216.37C40.549 216.789 41.0683 217.184 41.8904 217.422C42.0723 217.537 42.2973 217.594 42.5396 217.565C42.5667 217.569 42.594 217.574 42.6217 217.578C42.9824 217.629 43.3081 217.502 43.5228 217.281C44.0422 217.059 44.4561 216.761 44.8956 216.443C46.0615 215.602 47.4077 214.63 51.3843 214.63H57.8149C59.7517 214.63 61.3205 213.276 61.3205 211.606V193.465C61.3205 191.795 59.7504 190.441 57.8136 190.441H50.7998C47.279 190.441 44.2126 192.119 42.6173 194.597C41.0219 192.119 37.9555 190.441 34.4347 190.441H27.421Z" fill="white" stroke="#90DC48" stroke-width="1.56023"/><path d="M42.6172 194.473L42.6172 217.589" stroke="#90DC48" stroke-width="1.56023"/><path d="M54.0569 150.256C77.1279 150.256 95.8306 136.338 95.8306 119.169C95.8306 118.738 95.8188 118.309 95.7954 117.881H95.8305V110.432H94.158C89.085 97.5163 73.0514 88.082 54.0569 88.082C35.0624 88.082 19.0288 97.5163 13.9558 110.432H12.2896V117.881H12.3184C12.295 118.309 12.2832 118.738 12.2832 119.169C12.2832 136.338 30.9859 150.256 54.0569 150.256Z" fill="#E6A000"/><path d="M95.8306 110.49C95.8306 126.805 77.1279 140.031 54.0569 140.031C30.9859 140.031 12.2832 126.805 12.2832 110.49C12.2832 94.1752 30.9859 80.9492 54.0569 80.9492C77.1279 80.9492 95.8306 94.1752 95.8306 110.49Z" fill="#FFC800"/><path d="M85.3277 99.4559C83.3635 95.5841 76.7776 91.8052 73.4514 90.2682C73.3097 90.2027 73.1501 90.223 73.0304 90.3232C60.5863 100.749 36.7514 120.67 31.2776 124.978C31.0668 125.144 31.0759 125.46 31.2944 125.615C37.0262 129.703 45.1108 131.089 48.0719 131.201C48.1679 131.205 48.2549 131.175 48.3297 131.115C60.3641 121.442 81.8489 102.957 85.2466 99.9088C85.3776 99.7913 85.4073 99.6129 85.3277 99.4559Z" fill="#FFE700"/><path d="M61.1218 87.172C59.1376 86.9549 57.0971 86.8418 55.0148 86.8418C35.3714 86.8418 19.4473 96.9084 19.4473 109.326C19.4473 112.984 20.8289 116.438 23.2803 119.49L61.1218 87.172Z" fill="#FFE700"/><path d="M52.4181 110.482L47.5024 106.494C45.9992 105.274 43.5621 105.274 42.059 106.494C40.5559 107.713 40.5559 109.691 42.059 110.91L49.5646 117C50.3473 117.635 51.3832 117.939 52.4086 117.913C53.44 117.944 54.4836 117.639 55.271 117.001L68.8032 106.021C70.3063 104.801 70.3063 102.824 68.8032 101.604C67.3 100.385 64.863 100.385 63.3598 101.604L52.4181 110.482Z" fill="#CD7900" stroke="#CD7900" stroke-width="0.93881"/><path d="M54.0165 149.54C76.6003 149.54 94.908 135.936 94.908 119.156C94.908 118.734 94.8964 118.315 94.8736 117.897H94.9079V110.616H93.2708C88.305 97.9925 72.61 88.7715 54.0165 88.7715C35.423 88.7715 19.728 97.9925 14.7622 110.616H13.1313V117.897H13.1594C13.1366 118.315 13.125 118.734 13.125 119.156C13.125 135.936 31.4327 149.54 54.0165 149.54Z" fill="white"/><path d="M20.7942 127.403V136.891C19.0412 134.551 14.8616 130.4 14.1915 126.104C13.693 122.908 13.0813 116.53 13.1981 113.627C13.9928 120.177 18.5933 125.54 20.7942 127.403Z" fill="#D7FFBD"/><path d="M41.3291 138.062V148.046C31.4753 146.251 23.6302 139.817 20.9395 136.824V127.537C25.6715 133.79 36.5042 137.16 41.3291 138.062Z" fill="#D7FFBD"/><path d="M54.0165 149.54C76.6002 149.54 94.908 135.936 94.908 119.156C94.908 118.734 94.8964 118.315 94.8735 117.897H94.9078V110.616H93.2708C88.305 97.9925 72.61 88.7715 54.0165 88.7715C35.4229 88.7715 19.7279 97.9925 14.7622 110.616H13.1312V117.897C13.1084 118.315 13.125 118.734 13.125 119.156C13.125 135.936 31.4327 149.54 54.0165 149.54Z" stroke="#90DC48" stroke-width="1.56468"/><path d="M94.908 110.674C94.908 126.62 76.6003 139.547 54.0165 139.547C31.4327 139.547 13.125 126.62 13.125 110.674C13.125 94.7277 31.4327 81.8008 54.0165 81.8008C76.6003 81.8008 94.908 94.7277 94.908 110.674Z" fill="white"/><path d="M26.5292 124.412L20.9219 127.433C26.7395 133.591 36.8678 137.112 41.2048 138.102L43.9647 132.256C37.341 131.71 29.5812 126.799 26.5292 124.412Z" fill="#D7FFBD"/><path d="M19.3885 109.943H13.4306C12.6946 117.154 18.0012 124.608 20.7466 127.434L26.792 124.559C20.2734 119.726 19.1403 112.802 19.3885 109.943Z" fill="#D7FFBD"/><path d="M29.7236 94.1604L24.9355 90.3867C29.8216 86.328 37.8545 83.9716 41.2602 83.3008L44.2763 88.5C39.2394 88.6677 32.4758 92.3434 29.7236 94.1604Z" fill="#D7FFBD"/><path d="M46.2614 114.424L26.6938 124.408C20.802 120.773 19.2933 113.248 19.2754 109.94L41.1008 109.82L46.2614 114.424Z" fill="#D7FFBD"/><path d="M43.9863 132.393L51.1908 117.985L57.7634 114.049L66.6742 131.549C58.7366 134.867 48.2416 133.494 43.9863 132.393Z" fill="#D7FFBD"/><path d="M48.5187 108.424L24.7804 90.4034M52.8483 111.155L20.9462 127.221V136.869M54.0168 112.462L41.2104 137.837V147.854M13.5687 110.014L56.8307 110.014M88.5938 110.364C88.5938 122.989 73.1 133.224 53.9875 133.224C34.8749 133.224 19.3811 122.989 19.3811 110.364C19.3811 97.7393 34.8749 87.5048 53.9875 87.5048C73.1 87.5048 88.5938 97.7393 88.5938 110.364ZM94.908 110.674C94.908 126.62 76.6002 139.547 54.0165 139.547C31.4327 139.547 13.125 126.62 13.125 110.674C13.125 94.7277 31.4327 81.8008 54.0165 81.8008C76.6002 81.8008 94.908 94.7277 94.908 110.674Z" stroke="#90DC48" stroke-width="1.56468"/><path d="M95.6685 120.057C95.6685 136.824 77.219 150.417 54.4603 150.417C31.7015 150.417 13.252 136.824 13.252 120.057C13.252 103.29 31.7015 89.6973 54.4603 89.6973C77.219 89.6973 95.6685 103.29 95.6685 120.057Z" fill="white"/><path d="M19.4304 127.351V136.151C13.2052 128.989 13.3735 122.437 13.3735 120.143V114.199C13.7773 119.703 17.5797 125.261 19.4304 127.351Z" fill="#D7FFBD"/><path d="M40.2207 139.462V148.42C38.4517 147.956 33.5642 146.315 28.1658 143.463C22.7674 140.61 20.2135 137.287 19.6113 135.981V127.448L25.4559 124.525C25.757 125.285 27.4857 127.389 31.9914 129.727C36.4971 132.065 41.2797 133.499 43.1078 133.924L40.2207 139.462Z" fill="#D7FFBD"/><path d="M68.8734 139.462V148.42C70.6424 147.956 75.5299 146.315 80.9283 143.463C86.3267 140.61 88.8806 137.287 89.4828 135.981V127.448L83.6382 124.525C83.3371 125.285 81.6084 127.389 77.1027 129.727C72.597 132.065 67.8144 133.499 65.9863 133.924L68.8734 139.462Z" fill="#D7FFBD"/><path d="M54.4603 150.417C77.219 150.417 95.6686 136.824 95.6686 120.057C95.6686 119.998 95.6683 119.938 95.6679 119.879H95.6684V112.388H94.3425C89.7307 99.3338 73.6229 89.6973 54.4603 89.6973C35.2976 89.6973 19.1898 99.3338 14.578 112.388H13.2583V119.52C13.2541 119.698 13.252 119.878 13.252 120.057C13.252 136.824 31.7015 150.417 54.4603 150.417Z" stroke="#90DC48" stroke-width="1.56023"/><path d="M95.6685 111.782C95.6685 128.013 77.219 141.171 54.4603 141.171C31.7015 141.171 13.252 128.013 13.252 111.782C13.252 95.5507 31.7015 82.3926 54.4603 82.3926C77.219 82.3926 95.6685 95.5507 95.6685 111.782Z" fill="white"/><path d="M25.0678 124.59L19.6419 127.351C18.408 125.713 15.8141 122.718 14.5524 118.927C13.5948 116.05 13.2484 112.078 13.2905 110.408H19.6419C19.6419 111.141 19.7933 113.394 20.3989 116.54C21.0046 119.685 23.7639 123.217 25.0678 124.59Z" fill="#D7FFBD"/><path d="M43.1078 133.924L40.2207 139.462C38.4517 138.998 33.91 137.519 28.5241 134.269C23.271 131.098 20.2135 128.753 19.6113 127.448L25.4559 124.525C25.757 125.285 27.4857 127.389 31.9914 129.727C36.4971 132.065 41.2797 133.499 43.1078 133.924Z" fill="#D7FFBD"/><path d="M65.986 133.924L68.8731 139.462C70.642 138.998 75.1838 137.519 80.5696 134.269C85.8227 131.098 88.8802 128.753 89.4824 127.448L83.6378 124.525C83.3367 125.285 81.6081 127.389 77.1023 129.727C72.5966 132.065 67.814 133.499 65.986 133.924Z" fill="#D7FFBD"/><path d="M81.7536 89.0977L76.9727 92.9632C78.4492 94.0414 81.9504 96.247 84.7529 99.5209C87.3056 102.503 88.998 107.753 89.321 110.252H95.5965C95.0889 107.753 94.7504 102.933 91.6571 98.7792C89.2008 95.4804 84.0454 90.7065 81.7536 89.0977Z" fill="#D7FFBD"/><path d="M32.4464 92.9899L27.2227 89.074C37.6478 82.7597 49.7117 81.6298 54.4404 81.8541V87.3608C43.8393 87.1161 35.3606 91.0115 32.4464 92.9899Z" fill="#D7FFBD"/><path d="M54.5182 81.8623L54.5182 110.454M54.5182 110.454L81.4985 89.252M54.5182 110.454L89.3172 127.34V136.51M54.5182 110.454L68.5513 139.117M13.3319 110.454H95.6748M27.4222 89.252L54.4025 110.454M54.4025 110.454L19.6035 127.34V136.51M54.4025 110.454L40.3695 139.117M68.6115 139.117V148.287M40.3091 139.117V148.287M89.3172 111.467C89.3172 124.696 73.7112 135.42 54.4603 135.42C35.2094 135.42 19.6035 124.696 19.6035 111.467C19.6035 98.238 35.2094 87.5138 54.4603 87.5138C73.7112 87.5138 89.3172 98.238 89.3172 111.467ZM95.6686 111.467C95.6686 127.873 77.219 141.172 54.4603 141.172C31.7015 141.172 13.252 127.873 13.252 111.467C13.252 95.0612 31.7015 81.7617 54.4603 81.7617C77.219 81.7617 95.6686 95.0612 95.6686 111.467Z" stroke="#90DC48" stroke-width="1.56023"/><path d="M52.4099 110.701L47.598 106.748C46.1266 105.54 43.741 105.54 42.2696 106.748C40.7982 107.957 40.7982 109.917 42.2696 111.125L49.6167 117.161C50.383 117.79 51.3974 118.092 52.4014 118.066C53.4108 118.096 54.432 117.794 55.2025 117.161L68.4489 106.28C69.9203 105.071 69.9203 103.111 68.4489 101.903C66.9775 100.694 64.5919 100.694 63.1205 101.903L52.4099 110.701Z" fill="white" stroke="#90DC48" stroke-width="1.56468"/><path d="M121.608 69.7876C144.679 69.7876 163.381 55.8694 163.381 38.7004C163.381 38.2691 163.37 37.8398 163.346 37.4127H163.381V29.9629H161.709C156.636 17.0475 140.602 7.61328 121.608 7.61328C102.613 7.61328 86.5796 17.0475 81.5066 29.9629H79.8404V37.4127H79.8692C79.8458 37.8398 79.834 38.2691 79.834 38.7004C79.834 55.8694 98.5367 69.7876 121.608 69.7876Z" fill="#E6A000"/><path d="M163.381 30.0215C163.381 46.3366 144.679 59.5625 121.608 59.5625C98.5367 59.5625 79.834 46.3366 79.834 30.0215C79.834 13.7064 98.5367 0.480469 121.608 0.480469C144.679 0.480469 163.381 13.7064 163.381 30.0215Z" fill="#FFC800"/><path d="M152.879 18.9872C150.914 15.1153 144.328 11.3365 141.002 9.79943C140.86 9.73396 140.701 9.75421 140.581 9.85446C128.137 20.2806 104.302 40.2016 98.8284 44.5093C98.6176 44.6753 98.6267 44.9909 98.8452 45.1467C104.577 49.234 112.662 50.6205 115.623 50.7323C115.719 50.7359 115.806 50.706 115.881 50.6459C127.915 40.9736 149.4 22.488 152.797 19.44C152.928 19.3225 152.958 19.1441 152.879 18.9872Z" fill="#FFE700"/><path d="M128.673 6.70321C126.688 6.48617 124.648 6.37305 122.566 6.37305C102.922 6.37305 86.998 16.4396 86.998 28.8573C86.998 32.5151 88.3797 35.9689 90.8311 39.0214L128.673 6.70321Z" fill="#FFE700"/><path d="M119.969 30.0133L115.053 26.0248C113.55 24.8052 111.113 24.8052 109.61 26.0248C108.107 27.2444 108.107 29.2218 109.61 30.4414L117.115 36.5313C117.898 37.1663 118.934 37.4707 119.959 37.4444C120.991 37.4749 122.034 37.1707 122.822 36.5318L136.354 25.5521C137.857 24.3324 137.857 22.355 136.354 21.1354C134.851 19.9158 132.414 19.9158 130.911 21.1354L119.969 30.0133Z" fill="#CD7900" stroke="#CD7900" stroke-width="0.93881"/><path d="M121.567 69.071C144.151 69.071 162.459 55.4676 162.459 38.6869C162.459 38.2654 162.447 37.8458 162.424 37.4285H162.459V30.1472H160.822C155.856 17.5238 140.161 8.30273 121.567 8.30273C102.974 8.30273 87.2787 17.5238 82.313 30.1472H80.6821V37.4285H80.7102C80.6873 37.8458 80.6758 38.2654 80.6758 38.6869C80.6758 55.4676 98.9835 69.071 121.567 69.071Z" fill="white"/><path d="M88.345 46.9365V56.424C86.592 54.0846 82.4123 49.9334 81.7422 45.6368C81.2438 42.4409 80.632 36.0627 80.7489 33.1602C81.5436 39.7104 86.1441 45.0736 88.345 46.9365Z" fill="#D7FFBD"/><path d="M108.88 57.5937V67.5773C99.026 65.7818 91.181 59.3479 88.4902 56.3554V47.0684C93.2223 53.3217 104.055 56.6908 108.88 57.5937Z" fill="#D7FFBD"/><path d="M121.567 69.071C144.151 69.071 162.459 55.4676 162.459 38.6869C162.459 38.2654 162.447 37.8458 162.424 37.4285H162.459V30.1472H160.822C155.856 17.5238 140.161 8.30273 121.567 8.30273C102.974 8.30273 87.2787 17.5238 82.3129 30.1472H80.682V37.4285C80.6591 37.8458 80.6757 38.2654 80.6757 38.6869C80.6757 55.4676 98.9835 69.071 121.567 69.071Z" stroke="#90DC48" stroke-width="1.56468"/><path d="M162.461 30.205C162.461 46.1511 144.153 59.078 121.569 59.078C98.9855 59.078 80.6777 46.1511 80.6777 30.205C80.6777 14.2589 98.9855 1.33203 121.569 1.33203C144.153 1.33203 162.461 14.2589 162.461 30.205Z" fill="white"/><path d="M94.08 43.9453L88.4727 46.9659C94.2903 53.1241 104.419 56.6449 108.756 57.6356L111.515 51.7892C104.892 51.2435 97.1319 46.3326 94.08 43.9453Z" fill="#D7FFBD"/><path d="M86.9374 29.4746H80.9795C80.2435 36.6851 85.5501 44.1393 88.2954 46.965L94.3408 44.0905C87.8223 39.2575 86.6891 32.3328 86.9374 29.4746Z" fill="#D7FFBD"/><path d="M97.2744 13.6916L92.4863 9.918C97.3724 5.85928 105.405 3.50289 108.811 2.83203L111.827 8.03121C106.79 8.19892 100.027 11.8747 97.2744 13.6916Z" fill="#D7FFBD"/><path d="M113.814 33.955L94.2466 43.9391C88.3548 40.3042 86.846 32.7792 86.8281 29.4711L108.654 29.3516L113.814 33.955Z" fill="#D7FFBD"/><path d="M111.537 51.9241L118.742 37.516L125.314 33.5801L134.225 51.0807C126.287 54.3981 115.792 53.0253 111.537 51.9241Z" fill="#D7FFBD"/><path d="M116.071 27.9554L92.3331 9.93461M120.401 30.6863L88.499 46.7523V56.4001M121.569 31.9929L108.763 57.3686V67.3857M81.1214 29.5453L124.383 29.5453M156.147 29.8955C156.147 42.5204 140.653 52.755 121.54 52.755C102.428 52.755 86.9339 42.5204 86.9339 29.8955C86.9339 17.2705 102.428 7.036 121.54 7.036C140.653 7.036 156.147 17.2705 156.147 29.8955ZM162.461 30.205C162.461 46.1511 144.153 59.078 121.569 59.078C98.9855 59.078 80.6777 46.1511 80.6777 30.205C80.6777 14.2589 98.9855 1.33203 121.569 1.33203C144.153 1.33203 162.461 14.2589 162.461 30.205Z" stroke="#90DC48" stroke-width="1.56468"/><path d="M163.219 39.5883C163.219 56.3556 144.77 69.9482 122.011 69.9482C99.2523 69.9482 80.8027 56.3556 80.8027 39.5883C80.8027 22.8211 99.2523 9.22852 122.011 9.22852C144.77 9.22852 163.219 22.8211 163.219 39.5883Z" fill="white"/><path d="M86.9832 46.8826V55.6819C80.758 48.5207 80.9262 41.9681 80.9262 39.6747V33.7305C81.33 39.2347 85.1324 44.792 86.9832 46.8826Z" fill="#D7FFBD"/><path d="M107.771 58.993V67.9508C106.002 67.4869 101.115 65.8461 95.7166 62.9938C90.3182 60.1416 87.7643 56.8178 87.1621 55.5125V46.9791L93.0067 44.0566C93.3078 44.8165 95.0365 46.9206 99.5422 49.2585C104.048 51.5964 108.83 53.0306 110.659 53.4555L107.771 58.993Z" fill="#D7FFBD"/><path d="M136.424 58.993V67.9508C138.193 67.4869 143.081 65.8461 148.479 62.9938C153.877 60.1416 156.431 56.8178 157.034 55.5125V46.9791L151.189 44.0566C150.888 44.8165 149.159 46.9206 144.653 49.2585C140.148 51.5964 135.365 53.0306 133.537 53.4555L136.424 58.993Z" fill="#D7FFBD"/><path d="M122.011 69.9482C144.77 69.9482 163.219 56.3556 163.219 39.5883C163.219 39.529 163.219 39.4697 163.219 39.4104H163.219V31.9192H161.893C157.281 18.865 141.174 9.22852 122.011 9.22852C102.848 9.22852 86.7406 18.865 82.1288 31.9192H80.8091V39.0509C80.8048 39.2297 80.8027 39.4088 80.8027 39.5883C80.8027 56.3556 99.2523 69.9482 122.011 69.9482Z" stroke="#90DC48" stroke-width="1.56023"/><path d="M163.219 31.3132C163.219 47.5445 144.77 60.7026 122.011 60.7026C99.2523 60.7026 80.8027 47.5445 80.8027 31.3132C80.8027 15.0819 99.2523 1.92383 122.011 1.92383C144.77 1.92383 163.219 15.0819 163.219 31.3132Z" fill="white"/><path d="M92.6186 44.1213L87.1927 46.8827C85.9588 45.2446 83.3649 42.2491 82.1031 38.4579C81.1456 35.5808 80.7992 31.6088 80.8413 29.9395H87.1927C87.1927 30.6727 87.3441 32.9256 87.9497 36.0709C88.5554 39.2161 91.3146 42.7483 92.6186 44.1213Z" fill="#D7FFBD"/><path d="M110.659 53.4555L107.771 58.993C106.002 58.5291 101.461 57.0504 96.0749 53.7999C90.8218 50.6295 87.7643 48.2844 87.1621 46.9791L93.0067 44.0566C93.3078 44.8165 95.0365 46.9206 99.5422 49.2585C104.048 51.5964 108.83 53.0306 110.659 53.4555Z" fill="#D7FFBD"/><path d="M133.537 53.4555L136.424 58.993C138.193 58.5291 142.735 57.0504 148.12 53.7999C153.374 50.6295 156.431 48.2844 157.033 46.9791L151.189 44.0566C150.887 44.8165 149.159 46.9206 144.653 49.2585C140.147 51.5964 135.365 53.0306 133.537 53.4555Z" fill="#D7FFBD"/><path d="M149.304 8.62891L144.523 12.4944C146 13.5727 149.501 15.7783 152.304 19.0521C154.856 22.0343 156.549 27.2846 156.872 29.7835H163.147C162.64 27.2846 162.301 22.4647 159.208 18.3104C156.752 15.0116 151.596 10.2377 149.304 8.62891Z" fill="#D7FFBD"/><path d="M99.9972 12.5211L94.7734 8.60525C105.199 2.29093 117.262 1.16104 121.991 1.38538V6.89206C111.39 6.64732 102.911 10.5428 99.9972 12.5211Z" fill="#D7FFBD"/><path d="M122.069 1.39353L122.069 29.9851M122.069 29.9851L149.049 8.78324M122.069 29.9851L156.868 46.8712V56.0414M122.069 29.9851L136.102 58.6478M80.8827 29.9851H163.226M94.973 8.78324L121.953 29.9851M121.953 29.9851L87.1543 46.8712V56.0414M121.953 29.9851L107.92 58.6478M136.162 58.6478V67.818M107.86 58.6478V67.818M156.868 30.9983C156.868 44.2273 141.262 54.9515 122.011 54.9515C102.76 54.9515 87.1543 44.2273 87.1543 30.9983C87.1543 17.7693 102.76 7.04509 122.011 7.04509C141.262 7.04509 156.868 17.7693 156.868 30.9983ZM163.219 30.9982C163.219 47.404 144.77 60.7035 122.011 60.7035C99.2523 60.7035 80.8027 47.404 80.8027 30.9982C80.8027 14.5925 99.2523 1.29297 122.011 1.29297C144.77 1.29297 163.219 14.5925 163.219 30.9982Z" stroke="#90DC48" stroke-width="1.56023"/><path d="M119.961 30.2322L115.149 26.2795C113.677 25.0708 111.292 25.0708 109.82 26.2795C108.349 27.4882 108.349 29.4478 109.82 30.6565L117.167 36.6919C117.934 37.3214 118.948 37.623 119.952 37.5968C120.962 37.6268 121.983 37.3253 122.753 36.6923L136 25.8109C137.471 24.6022 137.471 22.6426 136 21.4339C134.528 20.2252 132.143 20.2252 130.671 21.4339L119.961 30.2322Z" fill="white" stroke="#90DC48" stroke-width="1.56468"/></svg>